<?xml version="1.0" standalone="no"?>
<!DOCTYPE svg PUBLIC "-//W3C//DTD SVG 1.1//EN" "http://www.w3.org/Graphics/SVG/1.1/DTD/svg11.dtd" >
<svg xmlns="http://www.w3.org/2000/svg">
<metadata>Generated by IcoMoon</metadata>
<defs>
<font id="icomoon" horiz-adv-x="1024">
<font-face units-per-em="1024" ascent="960" descent="-64" />
<missing-glyph horiz-adv-x="1024" />
<glyph unicode="&#x20;" horiz-adv-x="512" d="" />
<glyph unicode="&#xe900;" glyph-name="Phone" d="M819.2 29.867h-8.533c-128 12.8-247.467 55.467-349.867 123.733-98.133 64-179.2 145.067-238.933 238.933-68.267 110.933-110.933 230.4-123.733 345.6-4.267 59.733 42.667 115.2 102.4 123.733h128c55.467 0 106.667-42.667 110.933-98.133 4.267-34.133 12.8-68.267 25.6-98.133 12.8-46.933 4.267-89.6-25.6-115.2l-29.867-29.867c46.933-72.533 106.667-132.267 183.467-183.467l29.867 29.867c34.133 34.133 76.8 42.667 119.467 25.6 29.867-8.533 64-17.067 98.133-21.333 59.733-12.8 98.133-59.733 98.133-115.2v-115.2c-8.533-59.733-59.733-110.933-119.467-110.933zM200.533 797.867c-21.333-4.267-42.667-25.6-38.4-46.933 12.8-106.667 51.2-213.333 115.2-320 55.467-89.6 132.267-162.133 221.867-217.6 98.133-64 204.8-102.4 320-115.2h4.267c25.6 0 42.667 17.067 42.667 42.667v115.2c0 21.333-17.067 42.667-42.667 46.933-38.4 4.267-76.8 12.8-110.933 25.6-21.333 8.533-38.4 0-46.933-8.533l-46.933-46.933c-12.8-12.8-29.867-12.8-42.667-4.267-106.667 64-187.733 145.067-243.2 243.2-8.533 12.8-4.267 29.867 4.267 42.667l46.933 46.933c12.8 12.8 12.8 34.133 8.533 46.933-8.533 29.867-21.333 72.533-25.6 110.933-4.267 21.333-21.333 38.4-42.667 38.4h-123.733z" />
<glyph unicode="&#xe901;" glyph-name="Yes-No" d="M224.853 695.040c17.673 0 32-14.327 32-32v0-253.44c0-17.673-14.327-32-32-32s-32 14.327-32 32v0 253.44c0 17.673 14.327 32 32 32v0zM292.565 845.355c5.184 11.097 16.251 18.648 29.082 18.648 0.156 0 0.312-0.001 0.467-0.003h-0.024c14.421-0.213 28.501-3.968 41.131-10.837 12.629-6.827 23.467-16.64 31.744-28.331s13.909-25.088 16.64-39.211c2.731-14.080 2.517-28.587-0.64-42.581v-0.043l-10.667-47.957h72.96c11.52 0 22.656-2.901 32.64-8.363 9.984-5.419 18.347-13.184 24.747-22.4 8.361-12.229 13.352-27.339 13.352-43.614 0-7.097-0.949-13.972-2.727-20.505l0.127 0.546-45.141-168.96c-4.011-14.933-12.459-28.501-24.619-38.485-11.734-9.72-26.934-15.628-43.513-15.659h-261.34c-19.712 0-37.973 8.533-50.987 22.741-12.253 13.478-19.755 31.467-19.755 51.208 0 0.102 0 0.205 0.001 0.307v-0.016 168.96c0 18.816 6.827 37.419 19.755 51.499 12.642 13.924 30.786 22.656 50.971 22.741h53.391c0.934 0.031 1.789 0.347 2.487 0.862l-0.012-0.009c1.34 0.976 2.39 2.273 3.049 3.781l0.023 0.059 0.043 0.085 66.816 145.493zM338.731 792.491l-54.784-119.296c-5.547-12.16-14.251-22.741-25.472-30.293-10.719-7.385-23.974-11.813-38.26-11.861h-53.473c-0.853 0-2.304-0.341-3.84-2.005-1.806-2.131-2.905-4.912-2.905-7.95 0-0.1 0.001-0.2 0.004-0.3v0.015-168.96c0-3.584 1.323-6.485 2.944-8.235 1.493-1.664 2.944-2.005 3.797-2.005h261.419c1.158 0.049 2.2 0.511 2.99 1.24l-0.003-0.003c1.59 1.409 2.748 3.274 3.27 5.389l0.015 0.073 45.099 168.96c0.301 1.087 0.475 2.336 0.475 3.625 0 0.784-0.064 1.553-0.187 2.301l0.011-0.082c-0.314 1.859-1.003 3.513-1.99 4.948l0.027-0.042c-0.66 1.015-1.518 1.845-2.525 2.455l-0.035 0.020c-0.588 0.345-1.293 0.551-2.047 0.555h-112.897c-17.672 0.002-31.997 14.328-31.997 32 0 2.465 0.279 4.865 0.806 7.17l-0.041-0.215 19.371 87.040v0.085c0.636 2.67 1.001 5.735 1.001 8.885 0 2.637-0.256 5.214-0.743 7.709l0.041-0.252c-1.486 7.491-5.055 13.981-10.071 19.031l0.002-0.002zM799.147 205.227c-17.673 0-32 14.327-32 32v0 253.44c0 17.673 14.327 32 32 32s32-14.327 32-32v0-253.44c0-17.673-14.327-32-32-32v0zM731.435 54.912c-5.184-11.097-16.251-18.648-29.082-18.648-0.156 0-0.312 0.001-0.467 0.003h0.024c-15.117 0.238-29.253 4.225-41.584 11.068l0.453-0.231c-12.798 7.089-23.417 16.618-31.549 28.042l-0.195 0.289c-7.916 11.115-13.726 24.304-16.535 38.57l-0.105 0.641c-2.731 14.080-2.517 28.587 0.64 42.581v0.043l10.667 47.957h-72.96c-11.52 0-22.656 2.901-32.64 8.363-10.032 5.561-18.326 13.106-24.59 22.161l-0.156 0.239c-8.361 12.229-13.352 27.339-13.352 43.614 0 7.097 0.949 13.972 2.727 20.505l-0.127-0.546 45.141 168.96c4.011 14.933 12.459 28.501 24.619 38.485 11.736 9.717 26.935 15.624 43.512 15.659h261.384c19.712 0 37.973-8.533 50.987-22.741 12.928-14.080 19.755-32.683 19.755-51.499v-168.96c0-18.859-6.827-37.419-19.755-51.499-12.639-13.928-30.785-22.662-50.972-22.741h-53.433c-0.934-0.031-1.789-0.347-2.487-0.862l0.012 0.009c-1.34-0.976-2.39-2.273-3.049-3.781l-0.023-0.059-0.043-0.085-66.816-145.536zM685.269 107.776l54.784 119.296c5.547 12.16 14.251 22.741 25.472 30.293 10.708 7.416 23.971 11.85 38.269 11.861h53.464c0.853 0 2.304 0.341 3.84 2.005 1.806 2.126 2.905 4.902 2.905 7.934 0 0.106-0.001 0.211-0.004 0.316v-0.016 168.96c0.002 0.075 0.003 0.163 0.003 0.251 0 3.055-1.115 5.85-2.96 8l0.014-0.016c-1.493 1.664-2.944 2.005-3.797 2.005h-261.419c-1.158-0.049-2.2-0.511-2.99-1.24l0.003 0.003c-1.586-1.397-2.743-3.246-3.27-5.346l-0.015-0.073-45.099-168.96c-0.304-1.092-0.479-2.346-0.479-3.641 0-0.793 0.066-1.571 0.192-2.329l-0.011 0.082c0.317-1.858 1.006-3.513 1.99-4.949l-0.027 0.042c0.853-1.28 1.792-2.048 2.56-2.475 0.811-0.427 1.493-0.555 2.048-0.555h112.896c17.672-0.002 31.997-14.328 31.997-32 0-2.465-0.279-4.865-0.806-7.17l0.041 0.215-19.371-87.040v-0.085c-0.636-2.67-1-5.735-1-8.886 0-2.637 0.255-5.214 0.742-7.708l-0.041 0.253c1.486-7.491 5.055-13.981 10.071-19.031l-0.002 0.002z" />
<glyph unicode="&#xe902;" glyph-name="WYSIWYG" d="M682.667 906.667c17.673 0 32-14.327 32-32v0-170.667c0-29.455 23.878-53.333 53.333-53.333v0h170.667c17.673 0 32-14.327 32-32s-14.327-32-32-32v0h-170.667c-64.801 0-117.333 52.532-117.333 117.333v0 170.667c0 17.673 14.327 32 32 32v0zM258.347 872.32c21.231 21.222 50.557 34.347 82.948 34.347 0.014 0 0.027 0 0.041 0h383.998c8.833-0.008 16.828-3.594 22.613-9.386v0l213.333-213.333c6.016-5.973 9.387-14.123 9.387-22.613v-554.667c0-64.801-52.532-117.333-117.333-117.333v0h-256c-17.673 0-32 14.327-32 32s14.327 32 32 32v0h256c29.455 0 53.333 23.878 53.333 53.333v0 541.44l-194.56 194.56h-370.773c-29.455 0-53.333-23.878-53.333-53.333v0-170.667c0-17.673-14.327-32-32-32s-32 14.327-32 32v0 170.667c0 31.147 12.373 60.971 34.347 82.987zM96 448c0 17.673 14.327 32 32 32v0h426.667c17.673 0 32-14.327 32-32v0-80c0-17.673-14.327-32-32-32s-32 14.327-32 32v0 48h-362.667v-48c0-17.673-14.327-32-32-32s-32 14.327-32 32v0 80zM229.333 21.333c0 17.673 14.327 32 32 32v0h160c17.673 0 32-14.327 32-32s-14.327-32-32-32v0h-160c-17.673 0-32 14.327-32 32v0zM341.333 480c17.673 0 32-14.327 32-32v0-426.667c0-17.673-14.327-32-32-32s-32 14.327-32 32v0 426.667c0 17.673 14.327 32 32 32v0z" />
<glyph unicode="&#xe903;" glyph-name="Website-URL" d="M271.915 838.741l-1.942-1.127c-130.003-80.965-216.528-225.187-216.528-389.617 0-253.315 205.352-458.667 458.667-458.667 115.335 0 220.727 42.57 300.775 112.387 64.341 55.893 157.781 185.131 157.781 346.283v0c0 17.673-14.327 32-32 32s-32-14.327-32-32c0-137.515-81.067-250.453-135.723-297.984l0.471 0.402c-48.866-42.599-108.322-73.359-176.514-88.295 54.485 59.349 101.76 122.069 119.125 208.939l-0.045-0.219c0.589 2.427 0.901 4.962 0.901 7.57 0 17.673-14.327 32-32 32-15.839 0-28.991-11.508-31.576-26.808-17.237-86.101-69.248-142.677-138.752-215.381-94.165 107.605-160.555 242.517-160.555 379.776 0 71.125 28.16 143.104 71.424 212.907 43.264 69.632 100.139 134.699 154.411 191.701l-0.012-0.013c5.471 5.742 8.83 13.514 8.83 22.072 0 17.668-14.319 31.992-31.986 32-110.208 0-202.027-18.304-282.752-67.925zM435.584 60.843c-171.863 34.819-301.804 177.654-316.701 353.278l-0.099 1.453c-0.848 9.7-1.331 20.986-1.331 32.385 0 141.509 74.475 265.623 186.368 335.285l1.672 0.97c49.664 30.549 105.643 47.829 173.056 54.827-38.912-44.16-77.483-92.8-109.483-144.427-46.635-75.093-81.067-158.891-81.067-246.613 0-141.909 61.355-277.205 147.584-387.157zM91.435 448c0 20.181 16.341 36.565 36.565 36.565h256c20.194 0 36.565-16.371 36.565-36.565s-16.371-36.565-36.565-36.565v0h-256c-20.194 0-36.565 16.371-36.565 36.565v0zM724.011 805.973c25.17 28.897 62.028 47.056 103.127 47.056 75.405 0 136.533-61.128 136.533-136.533 0-33.006-11.712-63.276-31.206-86.882l0.185 0.231-0.341-0.427-58.752-69.547c-25.207-29.701-62.566-48.424-104.298-48.424-40.541 0-76.955 17.67-101.962 45.728l-0.119 0.136c-5.109 5.263-8.259 12.453-8.259 20.378 0 16.165 13.104 29.269 29.269 29.269 9.147 0 17.314-4.196 22.682-10.768l0.042-0.053c14.353-16.11 35.157-26.206 58.319-26.206 23.857 0 45.211 10.711 59.518 27.586l0.094 0.113 58.624 69.333c10.667 13.233 17.122 30.251 17.122 48.777 0 43.099-34.939 78.037-78.037 78.037-23.168 0-43.978-10.096-58.27-26.129l-0.068-0.077-33.536-39.467c-5.409-6.74-13.646-11.018-22.882-11.018-16.165 0-29.269 13.104-29.269 29.269 0 7.568 2.872 14.465 7.586 19.661l-0.022-0.024 33.963 39.979zM632.448 678.869c17.074 8.256 37.132 13.081 58.317 13.081 40.534 0 76.943-17.664 101.948-45.714l0.119-0.135c4.923-5.225 7.949-12.286 7.949-20.053 0-16.165-13.104-29.269-29.269-29.269-8.999 0-17.050 4.061-22.419 10.451l-0.037 0.045c-14.358 16.084-35.152 26.163-58.3 26.163-23.862 0-45.223-10.71-59.538-27.586l-0.093-0.113-58.539-69.333c-10.641-13.224-17.080-30.222-17.080-48.724 0-43.099 34.939-78.037 78.037-78.037 23.123 0 43.898 10.057 58.188 26.036l0.066 0.075 33.28 39.467c5.409 6.651 13.592 10.866 22.76 10.866 16.165 0 29.269-13.104 29.269-29.269 0-7.436-2.773-14.225-7.341-19.388l0.027 0.031-33.792-40.021c-25.17-28.897-62.028-47.056-103.127-47.056-75.405 0-136.533 61.128-136.533 136.533 0 33.006 11.712 63.276 31.206 86.882l-0.185-0.231 0.341 0.427 58.709 69.504c12.504 14.756 27.84 26.693 45.219 35.058l0.818 0.355z" />
<glyph unicode="&#xe904;" glyph-name="Total" d="M533.333 608c17.673 0 32-14.327 32-32v0-395.093c0-17.673-14.327-32-32-32s-32 14.327-32 32v0 395.093c0 17.673 14.327 32 32 32v0zM421.12 517.888c16.659 18.805 40.804 30.656 67.721 30.848h133.367c17.673 0 32-14.327 32-32s-14.327-32-32-32v0h-133.333c-8.088-0.198-15.278-3.884-20.149-9.604l-0.032-0.038c-6.232-7.187-10.030-16.632-10.030-26.964 0-0.181 0.001-0.361 0.003-0.541v0.027c0-10.88 3.925-20.736 10.027-27.477 4.897-5.775 12.087-9.476 20.146-9.685l0.035-0.001h88.917c26.112 0 50.432-11.52 67.755-30.805 17.237-19.2 26.453-44.501 26.453-70.315s-9.216-51.115-26.453-70.315c-16.665-18.789-40.81-30.624-67.723-30.805h-151.157c-17.673 0-32 14.327-32 32s14.327 32 32 32v0h151.125c8.088 0.198 15.278 3.884 20.149 9.604l0.032 0.038c6.232 7.187 10.030 16.632 10.030 26.964 0 0.181-0.001 0.361-0.003 0.541v-0.027c0.002 0.153 0.003 0.333 0.003 0.514 0 10.332-3.798 19.777-10.073 27.015l0.044-0.051c-4.903 5.759-12.093 9.444-20.148 9.642l-0.034 0.001h-88.917c-26.951 0.192-51.096 12.043-67.672 30.752l-0.083 0.096c-16.423 18.475-26.455 42.948-26.455 69.764 0 0.193 0.001 0.387 0.002 0.58v-0.030c0 25.771 9.173 51.115 26.453 70.272zM343.68 872.32c21.231 21.222 50.557 34.347 82.948 34.347 0.014 0 0.027 0 0.041 0h170.665c64.801 0 117.333-52.532 117.333-117.333v0-85.333c0-17.673-14.327-32-32-32s-32 14.327-32 32v0 85.333c0 29.455-23.878 53.333-53.333 53.333v0h-170.667c-29.455 0-53.333-23.878-53.333-53.333v0-85.333c0-17.673-14.327-32-32-32s-32 14.327-32 32v0 85.333c0 31.147 12.373 60.971 34.347 82.987zM170.667 672c-25.6 0-53.333-25.173-53.333-65.536v-487.595c0-40.363 27.733-65.536 53.333-65.536h682.667c25.6 0 53.333 25.173 53.333 65.536v487.595c0 40.363-27.733 65.536-53.333 65.536h-682.667zM53.333 606.464c0 67.413 48.64 129.536 117.333 129.536h682.667c68.693 0 117.333-62.123 117.333-129.536v-487.595c0-67.413-48.64-129.536-117.333-129.536h-682.667c-68.693 0-117.333 62.123-117.333 129.536v487.595z" />
<glyph unicode="&#xe905;" glyph-name="Subs-Plan" d="M186.283 637.611c0 101.338 82.15 183.488 183.488 183.488s183.488-82.15 183.488-183.488v0c0-101.326-82.141-183.467-183.467-183.467s-183.467 82.141-183.467 183.467v0zM369.749 885.077c-136.672 0-247.467-110.795-247.467-247.467s110.795-247.467 247.467-247.467v0c136.672 0 247.467 110.795 247.467 247.467s-110.795 247.467-247.467 247.467v0zM326.656 745.131c-35.582 0-64.427-28.845-64.427-64.427s28.845-64.427 64.427-64.427h21.803v-43.52h-64.853c-11.782 0-21.333-9.551-21.333-21.333s9.551-21.333 21.333-21.333v0h64.853v-21.76c0-11.782 9.551-21.333 21.333-21.333s21.333 9.551 21.333 21.333v0 21.76h21.76c35.582 0 64.427 28.845 64.427 64.427s-28.845 64.427-64.427 64.427h-21.76v43.52h64.853c11.782 0 21.333 9.551 21.333 21.333s-9.551 21.333-21.333 21.333v0h-64.853v21.76c0 11.782-9.551 21.333-21.333 21.333s-21.333-9.551-21.333-21.333v0-21.76h-21.76zM326.656 702.464h21.803v-43.52h-21.76c-12.018 0-21.76 9.742-21.76 21.76s9.742 21.76 21.76 21.76v0zM391.125 572.757v43.52h21.76c12.018 0 21.76-9.742 21.76-21.76s-9.742-21.76-21.76-21.76h-21.76zM913.877 614.997c5.321 5.699 8.588 13.376 8.588 21.815 0 17.673-14.327 32-32 32-8.44 0-16.116-3.267-21.834-8.606l0.019 0.017-498.859-498.773-214.4 214.4c-5.828 6.034-13.99 9.78-23.028 9.78-17.673 0-32-14.327-32-32 0-9.027 3.738-17.18 9.749-22.998l0.009-0.008 237.056-237.056c5.789-5.782 13.784-9.359 22.613-9.359s16.824 3.576 22.614 9.359v0l521.515 521.429z" />
<glyph unicode="&#xe906;" glyph-name="Single-Line-Text" d="M213.333 757.333c-5.891 0-10.667-4.776-10.667-10.667v0-85.333c0-17.673-14.327-32-32-32s-32 14.327-32 32v0 85.333c0 41.216 33.451 74.667 74.667 74.667h597.333c41.216 0 74.667-33.451 74.667-74.667v-85.333c0-17.673-14.327-32-32-32s-32 14.327-32 32v0 85.333c0 5.891-4.776 10.667-10.667 10.667v0h-597.333zM352 106.667c0 17.673 14.327 32 32 32v0h256c17.673 0 32-14.327 32-32s-14.327-32-32-32v0h-256c-17.673 0-32 14.327-32 32v0zM512 821.333c17.673 0 32-14.327 32-32v0-682.667c0-17.673-14.327-32-32-32s-32 14.327-32 32v0 682.667c0 17.673 14.327 32 32 32v0z" />
<glyph unicode="&#xe907;" glyph-name="Single-Item" d="M173.013 872.32c21.231 21.222 50.557 34.347 82.948 34.347 0.014 0 0.027 0 0.041 0h383.998c8.833-0.008 16.828-3.594 22.613-9.386v0l213.333-213.333c6.016-5.973 9.387-14.123 9.387-22.613v-554.667c0-64.801-52.532-117.333-117.333-117.333v0h-512c-64.801 0-117.333 52.532-117.333 117.333v0 682.667c0 31.147 12.373 60.971 34.347 82.987zM256 842.667c-29.455 0-53.333-23.878-53.333-53.333v0-682.667c0-29.455 23.878-53.333 53.333-53.333v0h512c29.455 0 53.333 23.878 53.333 53.333v0 541.44l-194.56 194.56h-370.773zM597.333 906.667c17.673 0 32-14.327 32-32v0-170.667c0-29.455 23.878-53.333 53.333-53.333v0h170.667c17.673 0 32-14.327 32-32s-14.327-32-32-32v0h-170.667c-64.801 0-117.333 52.532-117.333 117.333v0 170.667c0 17.673 14.327 32 32 32v0z" />
<glyph unicode="&#xe908;" glyph-name="Section-Title" d="M85.333-10.667c17.673 0 32 14.327 32 32v0 42.667l0.085 0.555c0.164 0.606 0.368 1.131 0.619 1.627l-0.022-0.048c0.871 1.763 1.971 3.271 3.283 4.563l0.002 0.002c3.499 3.499 6.4 3.968 6.699 3.968h768c0.256 0 3.2-0.427 6.699-3.968 1.313-1.295 2.412-2.803 3.242-4.468l0.044-0.097c0.3-0.616 0.537-1.332 0.675-2.082l0.008-0.052v-42.667c0-17.673 14.327-32 32-32s32 14.327 32 32v0 42.667c0 21.077-10.24 39.467-22.699 51.968-12.501 12.501-30.891 22.699-51.968 22.699h-768c-21.077 0-39.467-10.24-51.968-22.699-12.501-12.501-22.699-30.891-22.699-51.968v-42.667c0-17.664 14.336-32 32-32zM85.333 906.667c17.673 0 32-14.327 32-32v0-42.667l0.085-0.555c0.164-0.606 0.368-1.131 0.619-1.627l-0.022 0.048c0.871-1.763 1.971-3.271 3.283-4.563l0.002-0.002c3.499-3.499 6.4-3.968 6.699-3.968h768c0.256 0 3.2 0.427 6.699 3.968 1.315 1.294 2.414 2.802 3.242 4.468l0.044 0.097c0.23 0.448 0.434 0.973 0.584 1.52l0.014 0.059 0.085 0.555v42.667c0 17.673 14.327 32 32 32s32-14.327 32-32v0-42.667c0-21.077-10.24-39.467-22.699-51.968-12.501-12.501-30.891-22.699-51.968-22.699h-768c-21.077 0-39.467 10.24-51.968 22.699-12.459 12.501-22.699 30.891-22.699 51.968v42.667c0 17.673 14.327 32 32 32v0zM309.333 618.667c0 17.673 14.327 32 32 32v0h341.333c17.673 0 32-14.327 32-32v0-64c0-17.673-14.327-32-32-32s-32 14.327-32 32v0 32h-277.333v-32c0-17.673-14.327-32-32-32s-32 14.327-32 32v0 64zM416 277.333c0 17.673 14.327 32 32 32v0h128c17.673 0 32-14.327 32-32s-14.327-32-32-32v0h-128c-17.673 0-32 14.327-32 32v0zM512 650.667c17.673 0 32-14.327 32-32v0-341.333c0-17.673-14.327-32-32-32s-32 14.327-32 32v0 341.333c0 17.673 14.327 32 32 32v0z" />
<glyph unicode="&#xe909;" glyph-name="Scale-Rating" d="M512 788.48l-33.707-68.437c-12.4-24.668-35.772-42.243-63.532-46.406l-0.468-0.058-75.605-11.051 54.656-53.205c15.867-15.463 25.709-37.043 25.709-60.921 0-5.067-0.443-10.031-1.293-14.854l0.075 0.511-12.885-75.179 67.541 35.541c11.458 6.13 25.063 9.73 39.509 9.73s28.052-3.601 39.968-9.953l-0.458 0.223 67.627-35.541-12.928 75.179c-0.771 4.303-1.212 9.257-1.212 14.313 0 23.886 9.839 45.475 25.685 60.934l0.017 0.017 54.613 53.205-75.605 11.093c-28.169 4.252-51.486 21.801-63.649 45.933l-0.223 0.488-33.835 68.437zM660.053 437.333c-0.043 0.085-0.085 0.085-0.171 0.085l0.171-0.085zM364.16 437.419l-0.085-0.043zM486.912 880.384c7.141 4.499 15.828 7.168 25.137 7.168 18.611 0 34.731-10.668 42.578-26.223l0.125-0.273 54.187-109.824c2.134-4.223 6.132-7.235 10.883-7.968l0.082-0.010 121.173-17.749c23.184-3.489 40.755-23.271 40.755-47.156 0-13.351-5.49-25.42-14.336-34.073l-0.009-0.009-87.68-85.376c-2.713-2.652-4.395-6.349-4.395-10.438 0-0.88 0.078-1.741 0.227-2.578l-0.013 0.088 20.651-120.405v-0.128c0.451-2.462 0.71-5.296 0.71-8.189 0-26.298-21.318-47.616-47.616-47.616-8.159 0-15.839 2.052-22.552 5.669l0.253-0.125-0.085 0.043-108.203 56.875c-1.967 1.054-4.303 1.673-6.784 1.673s-4.817-0.619-6.862-1.711l0.078 0.038-108.245-56.917c-6.459-3.492-14.139-5.544-22.299-5.544-26.298 0-47.616 21.318-47.616 47.616 0 2.894 0.258 5.727 0.753 8.479l-0.043-0.289v0.085l20.651 120.448c0.136 0.749 0.214 1.61 0.214 2.49 0 4.089-1.682 7.786-4.393 10.435l-87.64 85.293c-8.952 8.668-14.509 20.797-14.509 34.223 0 23.935 17.66 43.746 40.661 47.112l0.258 0.031 121.131 17.707c4.842 0.721 8.857 3.72 10.97 7.853l0.038 0.083 54.187 109.824c4.050 8.062 10.042 14.629 17.381 19.254l0.198 0.116zM160 191.36v-84.053l0.030-0.047c1.134-1.673 2.634-3.078 4.45-4.134 5.632-3.755 15.275-7.125 27.52-7.125l639.921 0.002c0.538-0.017 1.079-0.025 1.621-0.025 9.588 0 18.555 2.658 25.977 7.149l0.064 0.035c1.75 1.023 3.25 2.427 4.416 4.147v84.053l-0.030 0.047c-1.135 1.672-2.635 3.077-4.45 4.134-5.675 3.755-15.275 7.125-27.52 7.125h-640c-12.245 0-21.888-3.371-27.52-7.125l-0.064-0.035c-1.751-1.021-3.252-2.426-4.416-4.147zM128.981 248.789c17.536 11.691 39.893 17.877 63.019 17.877h640c23.125 0 45.483-6.187 63.019-17.877 17.28-11.52 32.981-30.976 32.981-56.789v-85.333c0-25.813-15.701-45.227-32.981-56.789-17.536-11.691-39.893-17.877-63.019-17.877h-640c-23.125 0-45.483 6.187-63.019 17.877-17.28 11.52-32.981 30.976-32.981 56.789v85.333c0 25.813 15.701 45.227 32.981 56.789zM117.333 202.667h448v-106.667h-448v106.667z" />
<glyph unicode="&#xe90a;" glyph-name="Reset" d="M511.872 864h0.128c229.75 0 416-186.25 416-416s-186.25-416-416-416c-229.75 0-416 186.25-416 416v0c0 17.673 14.327 32 32 32s32-14.327 32-32v0c0-194.404 157.596-352 352-352s352 157.596 352 352c0 194.389-157.572 351.976-351.955 352h-0.002c-103.106-0.426-196.556-41.422-265.282-107.838l0.109 0.105-96.256-96.213c-5.699-5.321-13.376-8.588-21.815-8.588-17.673 0-32 14.327-32 32 0 8.44 3.267 16.116 8.606 21.834l-0.017-0.019 96.811 96.853c80.103 77.497 189.25 125.403 309.584 125.866h0.091zM128 864c17.673 0 32-14.327 32-32v0-181.333h181.333c17.673 0 32-14.327 32-32s-14.327-32-32-32v0h-213.333c-17.673 0-32 14.327-32 32v0 213.333c0 17.673 14.327 32 32 32v0z" />
<glyph unicode="&#xe90b;" glyph-name="Repeater-Field" d="M213.333 800c-29.44 0-53.333-23.893-53.333-53.333v-597.333c0-29.44 23.893-53.333 53.333-53.333h85.333c17.673 0 32-14.327 32-32s-14.327-32-32-32v0h-85.333c-64.801 0-117.333 52.532-117.333 117.333v0 597.333c0 64.801 52.532 117.333 117.333 117.333v0h597.333c64.801 0 117.333-52.532 117.333-117.333v0-85.333c0-17.673-14.327-32-32-32s-32 14.327-32 32v0 85.333c0 29.44-23.893 53.333-53.333 53.333h-597.333zM786.987 554.88c5.875 6.446 14.307 10.475 23.679 10.475 8.312 0 15.883-3.169 21.573-8.364l-0.025 0.022 85.333-77.653c6.447-5.875 10.477-14.307 10.477-23.68s-4.030-17.805-10.451-23.657l-0.025-0.023-85.333-77.611c-5.666-5.169-13.236-8.336-21.547-8.336-17.682 0-32.016 14.334-32.016 32.016 0 9.371 4.026 17.802 10.444 23.657l0.025 0.023 59.307 53.931-59.307 53.973c-6.446 5.875-10.475 14.307-10.475 23.679 0 8.312 3.169 15.883 8.364 21.573l-0.022-0.025zM521.472 415.061c-17.579 0-33.92-6.4-45.525-16.939-10.432-9.146-17.050-22.423-17.28-37.251v-21.629c0-17.673-14.327-32-32-32s-32 14.327-32 32v0 21.547c0 32.427 14.165 62.805 38.229 84.693 23.212 20.838 54.061 33.58 87.886 33.58 0.243 0 0.485-0.001 0.727-0.002h331.824c17.673 0 32-14.327 32-32s-14.327-32-32-32v0h-331.861zM535.68 240.811c5.173-5.664 8.342-13.236 8.342-21.548 0-9.372-4.029-17.804-10.45-23.656l-0.025-0.023-59.307-53.931 59.307-53.973c6.442-5.878 10.469-14.309 10.469-23.68 0-17.682-14.334-32.016-32.016-32.016-8.31 0-15.881 3.166-21.572 8.358l0.025-0.023-85.333 77.653c-6.447 5.875-10.477 14.307-10.477 23.68s4.030 17.805 10.451 23.657l0.025 0.023 85.333 77.611c5.664 5.173 13.236 8.342 21.548 8.342 9.372 0 17.804-4.029 23.656-10.45l0.023-0.025zM896 285.781c17.673 0 32-14.327 32-32v0-21.589c0-32.384-14.165-62.72-38.229-84.651-23.218-20.838-54.072-33.58-87.902-33.58-0.237 0-0.473 0.001-0.71 0.002h-331.825c-17.673 0-32 14.327-32 32s14.327 32 32 32v0h331.861c17.579 0 33.92 6.4 45.525 16.939 11.477 10.453 17.28 23.936 17.28 37.291v21.589c0 17.673 14.327 32 32 32v0z" />
<glyph unicode="&#xe90c;" glyph-name="Rating" d="M512 826.027l-88.192-178.688c-18.154-36.181-52.404-61.968-93.094-68.096l-0.687-0.085-197.419-28.843 142.763-138.965c23.275-22.673 37.714-54.319 37.714-89.338 0-7.433-0.651-14.715-1.898-21.79l0.11 0.75-33.707-196.352 176.427 92.757c16.808 8.997 36.768 14.282 57.963 14.282s41.155-5.285 58.634-14.609l-0.672 0.327 176.469-92.8-33.707 196.437c-1.126 6.297-1.769 13.545-1.769 20.944 0 35.032 14.429 66.694 37.669 89.367l0.025 0.025 142.677 138.923-197.376 28.885c-41.338 6.255-75.546 32.030-93.369 67.464l-0.327 0.717-88.235 178.688zM256.939 93.739l0.085 0.043zM482.091 900.267c8.499 5.351 18.836 8.525 29.914 8.525 22.167 0 41.365-12.71 50.705-31.24l0.149-0.325 98.56-199.68c8.223-16.345 23.707-27.993 42.099-30.767l0.311-0.039 220.373-32.256c27.62-4.164 48.55-27.732 48.55-56.188 0-15.915-6.547-30.301-17.094-40.612l-159.413-155.232c-10.505-10.267-17.019-24.579-17.019-40.413 0-3.359 0.293-6.649 0.855-9.847l-0.049 0.339 37.547-219.136 0.043-0.085c0.538-2.936 0.846-6.314 0.846-9.764 0-31.34-25.406-56.747-56.747-56.747-9.724 0-18.876 2.446-26.876 6.756l0.302-0.149h-0.085l-196.864 103.552c-7.602 4.072-16.631 6.464-26.219 6.464s-18.616-2.392-26.522-6.612l0.303 0.148zM485.76 136.96l-196.907-103.552c-7.686-4.15-16.823-6.589-26.529-6.589-31.317 0-56.704 25.387-56.704 56.704 0 3.444 0.307 6.816 0.895 10.090l-0.051-0.344v0.085l37.547 219.136c0.517 2.867 0.812 6.168 0.812 9.537 0 15.825-6.517 30.128-17.014 40.372l-0.011 0.011-159.403 155.179c-10.655 10.329-17.268 24.774-17.268 40.763 0 28.506 21.020 52.104 48.405 56.138l0.309 0.037 220.288 32.213c18.752 2.779 34.287 14.434 42.391 30.482l0.148 0.323 98.517 199.637c4.693 9.472 11.947 17.493 20.907 23.040z" />
<glyph unicode="&#xe90d;" glyph-name="Range-Slider" d="M213.333 800c-27.861 0-53.333-24.32-53.333-58.069v-630.571c0-33.707 25.472-58.069 53.333-58.069h597.333c27.861 0 53.333 24.32 53.333 58.069v630.613c0 33.707-25.472 58.069-53.333 58.069h-597.333zM96 741.931c0 65.749 50.944 122.069 117.333 122.069h597.333c66.389 0 117.333-56.32 117.333-122.069v-630.571c0-65.749-50.944-122.069-117.333-122.069h-597.333c-66.389 0-117.333 56.32-117.333 122.069v630.613zM224 425.259c0 17.673 14.327 32 32 32v0h187.733c17.673 0 32-14.327 32-32s-14.327-32-32-32v0h-187.733c-17.673 0-32 14.327-32 32v0zM599.467 425.259c0 17.673 14.327 32 32 32v0h153.6c17.673 0 32-14.327 32-32s-14.327-32-32-32v0h-153.6c-17.673 0-32 14.327-32 32v0zM534.741 364.075v0c-33.779 0-61.163 27.383-61.163 61.163s27.383 61.163 61.163 61.163v0c33.779 0 61.163-27.383 61.163-61.163s-27.383-61.163-61.163-61.163zM534.741 300.075c69.125 0 125.163 56.037 125.163 125.163s-56.037 125.163-125.163 125.163v0c-69.125 0-125.163-56.037-125.163-125.163s56.037-125.163 125.163-125.163v0z" />
<glyph unicode="&#xe90e;" glyph-name="Quantity" d="M284.843 513.493c-0.795 0.014-1.734 0.021-2.674 0.021-92.536 0-167.552-75.016-167.552-167.552s75.016-167.552 167.552-167.552c0.94 0 1.878 0.008 2.815 0.023l-0.141-0.002c91.379 1.505 164.878 75.934 164.878 167.531s-73.499 166.026-164.737 167.529l-0.141 0.002zM53.291 345.941c0 127.883 103.669 231.552 231.552 231.552s231.552-103.669 231.552-231.552v0c0-127.883-103.669-231.552-231.552-231.552s-231.552 103.669-231.552 231.552v0zM173.056 345.941c0 17.673 14.327 32 32 32v0h159.616c17.673 0 32-14.327 32-32s-14.327-32-32-32v0h-159.616c-17.673 0-32 14.327-32 32v0zM284.843 457.813c17.673 0 32-14.327 32-32v0-159.659c0-17.673-14.327-32-32-32s-32 14.327-32 32v0 159.616c0 17.673 14.327 32 32 32v0zM147.968 724.053c5.789-5.782 13.784-9.359 22.613-9.359s16.824 3.576 22.614 9.359v0l105.387 105.387 105.387-105.387c5.858-6.274 14.178-10.185 23.412-10.185 17.673 0 32 14.327 32 32 0 9.234-3.911 17.554-10.166 23.394l-0.019 0.017-128 128c-5.789 5.782-13.784 9.359-22.613 9.359s-16.824-3.576-22.614-9.359v0l-128-128c-5.782-5.789-9.359-13.784-9.359-22.613s3.576-16.824 9.359-22.614v0zM291.712 513.323c-17.673 0-32 14.327-32 32v0 286.848c0 17.673 14.327 32 32 32s32-14.327 32-32v0-286.891c0-17.673-14.327-32-32-32v0zM726.613 422.229c-92.536 0-167.552 75.016-167.552 167.552s75.016 167.552 167.552 167.552v0c92.536 0 167.552-75.016 167.552-167.552s-75.016-167.552-167.552-167.552v0zM495.019 589.781c0-127.883 103.669-231.552 231.552-231.552s231.552 103.669 231.552 231.552v0c0 127.883-103.669 231.552-231.552 231.552s-231.552-103.669-231.552-231.552v0zM614.827 589.781c0-17.664 14.293-32 32-32h159.573c17.673 0 32 14.327 32 32s-14.327 32-32 32v0h-159.573c-17.673 0-32-14.327-32-32v0zM589.696 211.712c5.789 5.782 13.784 9.359 22.613 9.359s16.824-3.576 22.614-9.359v0l105.387-105.387 105.387 105.387c5.699 5.321 13.376 8.588 21.815 8.588 17.673 0 32-14.327 32-32 0-8.44-3.267-16.116-8.606-21.834l0.017 0.019-128-128c-5.789-5.782-13.784-9.359-22.613-9.359s-16.824 3.576-22.614 9.359v0l-128 128c-5.782 5.789-9.359 13.784-9.359 22.613s3.576 16.824 9.359 22.614v0zM733.44 422.4c-17.673 0-32-14.327-32-32v0-286.805c0-17.673 14.327-32 32-32s32 14.327 32 32v0 286.805c0 17.673-14.327 32-32 32v0z" />
<glyph unicode="&#xe90f;" glyph-name="Progress" d="M317.269 113.792c-11.093-19.029-4.693-43.648 15.275-52.907 52.656-25.022 114.418-39.634 179.592-39.634 235.665 0 426.709 191.044 426.709 426.709s-191.044 426.709-426.709 426.709c-10.196 0-20.309-0.358-30.327-1.061l1.348 0.076c-21.973-1.493-36.693-22.187-33.195-43.904 3.541-21.717 24.021-36.224 45.995-35.2 4.796 0.237 10.415 0.372 16.065 0.372 191.624 0 346.965-155.342 346.965-346.965s-155.342-346.965-346.965-346.965c-50.328 0-98.153 10.715-141.319 29.989l2.203-0.879c-20.181 8.832-44.501 2.603-55.595-16.384zM332.544 60.885c-19.968 9.259-26.325 33.877-15.275 52.907 11.093 18.987 35.413 25.173 55.595 16.384 40.987-18.42 88.845-29.151 139.208-29.151 191.624 0 346.965 155.342 346.965 346.965s-155.342 346.965-346.965 346.965c-5.668 0-11.304-0.136-16.905-0.405l0.79 0.030c-21.973-1.024-42.453 13.483-45.995 35.2-3.541 21.76 11.221 42.411 33.195 43.947 8.618 0.62 18.672 0.974 28.809 0.974 235.641 0 426.667-191.025 426.667-426.667s-191.025-426.667-426.667-426.667c-65.109 0-126.812 14.584-182.020 40.663l2.597-1.103zM125.355 436.181c-22.016-0.683-39.467-19.115-36.779-40.96 14.605-114.108 72.399-212.501 156.186-279.89l0.828-0.644c17.237-13.739 42.069-8.448 54.187 9.941 12.075 18.389 6.741 42.923-10.155 57.045-63.771 53.511-107.798 128.727-120.68 214.15l-0.237 1.914c-3.2 21.76-21.333 39.125-43.349 38.443zM88.576 395.264c-2.688 21.803 14.763 40.235 36.779 40.96 22.016 0.64 40.149-16.725 43.349-38.485 13.12-87.337 57.146-162.553 120.382-215.627l0.535-0.437c16.896-14.080 22.187-38.656 10.112-57.045s-36.907-23.68-54.101-9.941c-84.623 68.042-142.419 166.451-156.791 278.449l-0.223 2.127zM254.763 736.896c-14.635 16.427-39.979 18.005-54.997 1.92-60.237-64.543-100.759-148.191-111.555-240.911l-0.189-1.991c-2.475-21.845 15.232-40.107 37.248-40.533s39.936 17.152 42.88 38.997c9.92 71.649 40.414 134.827 85.241 184.907l-0.291-0.331c14.635 16.427 16.299 41.515 1.707 57.941zM199.765 738.816c15.019 16.085 40.363 14.507 55.040-1.92 14.592-16.427 12.928-41.515-1.707-57.941-44.52-49.752-74.999-112.93-84.699-182.755l-0.207-1.821c-2.987-21.845-20.907-39.381-42.923-38.997-22.016 0.427-39.68 18.688-37.248 40.533 10.997 94.715 51.534 178.362 112.016 243.15l-0.23-0.249zM425.429 825.003c-4.907 21.461-26.368 35.029-47.275 28.16-37.969-12.731-70.897-28.986-101.13-48.988l1.589 0.988c-18.432-12.032-21.205-37.291-7.509-54.528 13.739-17.195 38.699-19.84 57.387-8.192 19.38 12.29 41.684 23.272 65.169 31.789l2.415 0.765c20.736 7.339 34.261 28.501 29.312 49.92zM378.155 853.12c20.907 6.912 42.368-6.656 47.275-28.16 4.949-21.419-8.533-42.581-29.312-49.92-25.9-9.283-48.204-20.265-69.015-33.398l1.431 0.843c-18.688-11.648-43.648-9.003-57.387 8.192-13.653 17.237-10.923 42.496 7.509 54.528 28.631 18.981 61.546 35.208 96.491 47.031l3.007 0.883zM705.28 555.947c5.782-5.789 9.359-13.784 9.359-22.613s-3.576-16.824-9.359-22.614v0l-199.083-199.125c-5.792-5.795-13.794-9.38-22.635-9.38s-16.843 3.585-22.634 9.38l-99.542 99.542c-5.564 5.75-8.993 13.595-8.993 22.242 0 17.673 14.327 32 32 32 8.636 0 16.473-3.421 22.229-8.981l76.919-76.919 176.512 176.469c5.789 5.782 13.784 9.359 22.613 9.359s16.824-3.576 22.614-9.359v0z" />
<glyph unicode="&#xe910;" glyph-name="Privacy-Policy" d="M640 906.667c17.673 0 32-14.327 32-32v0-170.667c0-29.455 23.878-53.333 53.333-53.333v0h170.667c17.673 0 32-14.327 32-32s-14.327-32-32-32v0h-170.667c-64.801 0-117.333 52.532-117.333 117.333v0 170.667c0 17.673 14.327 32 32 32v0zM215.68 872.32c21.231 21.222 50.557 34.347 82.948 34.347 0.014 0 0.027 0 0.041 0h383.998c8.833-0.008 16.828-3.594 22.613-9.386v0l213.333-213.333c5.973-5.973 9.387-14.123 9.387-22.613v-554.667c0-64.801-52.532-117.333-117.333-117.333v0h-192c-17.673 0-32 14.327-32 32s14.327 32 32 32v0h192c29.455 0 53.333 23.878 53.333 53.333v0 541.44l-194.56 194.56h-370.773c-29.455 0-53.333-23.878-53.333-53.333v0-149.333c0-17.673-14.327-32-32-32s-32 14.327-32 32v0 149.333c0 31.147 12.373 60.971 34.347 82.987zM341.419 501.291h-0.171c-48.555-40.619-119.381-74.837-181.248-76.757v-172.8c0-55.125 19.669-94.976 50.987-125.781 32.128-31.573 77.781-54.741 130.859-72.448 52.608 17.792 97.877 40.96 129.835 72.405 31.317 30.848 50.987 70.699 50.987 125.824v172.885c-61.824 1.877-132.395 35.84-181.248 76.715zM300.757 550.912c10.95 9.030 25.123 14.507 40.576 14.507s29.626-5.476 40.685-14.594l-0.109 0.087 0.256-0.256c43.051-36.096 102.4-62.123 145.835-62.123 15.147 0 29.909-5.76 41.003-16.427 11.136-10.667 17.664-25.472 17.664-41.173v-179.2c0-72.832-27.008-128.939-70.101-171.392-42.112-41.472-98.389-68.693-156.032-88.021l-0.256-0.085c-5.5-1.845-11.834-2.91-18.417-2.91-7.053 0-13.82 1.222-20.102 3.467l0.417-0.13c-57.685 19.157-113.92 46.293-156.032 87.723-43.136 42.411-70.144 98.517-70.144 171.392v179.2c0 15.659 6.528 30.464 17.664 41.131 11.093 10.667 25.856 16.427 41.003 16.427 43.392 0 103.040 26.24 145.835 62.123l0.256 0.256zM422.613 342.613c5.782-5.789 9.359-13.784 9.359-22.613s-3.576-16.824-9.359-22.614v0l-96-96c-5.789-5.782-13.784-9.359-22.613-9.359s-16.824 3.576-22.614 9.359v0l-48 48c-6.274 5.858-10.185 14.178-10.185 23.412 0 17.673 14.327 32 32 32 9.234 0 17.554-3.911 23.394-10.166l0.017-0.019 25.387-25.344 73.387 73.387c5.789 5.782 13.784 9.359 22.613 9.359s16.824-3.576 22.614-9.359v0z" />
<glyph unicode="&#xe911;" glyph-name="Password" d="M533.333 234.667c11.782 0 21.333 9.551 21.333 21.333s-9.551 21.333-21.333 21.333v0c-11.782 0-21.333-9.551-21.333-21.333s9.551-21.333 21.333-21.333v0zM533.333 245.333c5.891 0 10.667 4.776 10.667 10.667s-4.776 10.667-10.667 10.667v0c-5.891 0-10.667-4.776-10.667-10.667s4.776-10.667 10.667-10.667v0zM480 256c0 29.455 23.878 53.333 53.333 53.333s53.333-23.878 53.333-53.333v0c0-29.455-23.878-53.333-53.333-53.333s-53.333 23.878-53.333 53.333v0zM362.667 234.667c11.782 0 21.333 9.551 21.333 21.333s-9.551 21.333-21.333 21.333v0c-11.782 0-21.333-9.551-21.333-21.333s9.551-21.333 21.333-21.333v0zM362.667 245.333c5.891 0 10.667 4.776 10.667 10.667s-4.776 10.667-10.667 10.667v0c-5.891 0-10.667-4.776-10.667-10.667s4.776-10.667 10.667-10.667v0zM309.333 256c0 29.455 23.878 53.333 53.333 53.333s53.333-23.878 53.333-53.333v0c0-29.455-23.878-53.333-53.333-53.333s-53.333 23.878-53.333 53.333v0zM704 234.667c11.782 0 21.333 9.551 21.333 21.333s-9.551 21.333-21.333 21.333v0c-11.782 0-21.333-9.551-21.333-21.333s9.551-21.333 21.333-21.333v0zM704 245.333c5.891 0 10.667 4.776 10.667 10.667s-4.776 10.667-10.667 10.667v0c-5.891 0-10.667-4.776-10.667-10.667s4.776-10.667 10.667-10.667v0zM650.667 256c0 29.455 23.878 53.333 53.333 53.333s53.333-23.878 53.333-53.333v0c0-29.455-23.878-53.333-53.333-53.333s-53.333 23.878-53.333 53.333v0zM213.333 501.333c-29.44 0-53.333-23.893-53.333-53.333v-341.333c0-29.44 23.893-53.333 53.333-53.333h597.333c29.44 0 53.333 23.893 53.333 53.333v341.333c0 29.44-23.893 53.333-53.333 53.333h-597.333zM96 448c0 64.801 52.532 117.333 117.333 117.333v0h597.333c64.801 0 117.333-52.532 117.333-117.333v0-341.333c0-64.801-52.532-117.333-117.333-117.333v0h-597.333c-64.801 0-117.333 52.532-117.333 117.333v0 341.333zM512 842.667c-100.148 0-181.333-81.186-181.333-181.333v0-128c0-17.673-14.327-32-32-32s-32 14.327-32 32v0 128c0 135.494 109.839 245.333 245.333 245.333s245.333-109.839 245.333-245.333v0-128c0-17.673-14.327-32-32-32s-32 14.327-32 32v0 128c0 100.148-81.186 181.333-181.333 181.333v0z" />
<glyph unicode="&#xe912;" glyph-name="Paragraph" d="M560.725 864c17.673 0 32-14.327 32-32v0-780.203c0-17.673-14.327-32-32-32s-32 14.327-32 32v0 780.203c0 17.673 14.327 32 32 32v0zM755.797 864c17.673 0 32-14.327 32-32v0-780.203c0-17.673-14.327-32-32-32s-32 14.327-32 32v0 780.203c0 17.673 14.327 32 32 32v0zM212.309 790.357c45.501 45.5 108.359 73.643 177.79 73.643 0.001 0 0.001 0 0.002 0h463.232c17.673 0 32-14.327 32-32s-14.327-32-32-32v0h-463.232c-103.517 0-187.435-83.917-187.435-187.435s83.917-187.435 187.435-187.435v0h170.667c17.673 0 32-14.327 32-32s-14.327-32-32-32v0h-170.667c0 0-0.001 0-0.002 0-138.864 0-251.435 112.571-251.435 251.435 0 69.432 28.143 132.291 73.644 177.792v0z" />
<glyph unicode="&#xe913;" glyph-name="E-Signature" d="M130.603 730.411c18.406 19.809 44.568 32.194 73.624 32.299h337.811c17.673 0 32-14.327 32-32s-14.327-32-32-32v0h-337.792c-10.681-0.107-20.261-4.729-26.939-12.046l-0.026-0.029c-7.541-8.238-12.162-19.258-12.162-31.357 0-0.136 0.001-0.272 0.002-0.407v0.021-530.987c0-12.288 4.608-23.68 12.16-31.744 6.698-7.361 16.279-11.999 26.944-12.117h497.77c10.687 0.119 20.267 4.756 26.939 12.087l0.027 0.030c7.541 8.238 12.162 19.258 12.162 31.357 0 0.136-0.001 0.272-0.002 0.407v-0.021 327.552c0 17.673 14.327 32 32 32s32-14.327 32-32v0-327.552c0.001-0.125 0.001-0.272 0.001-0.42 0-29.032-11.196-55.449-29.505-75.17l0.064 0.070c-18.409-19.835-44.589-32.238-73.666-32.341h-497.768c-29.081 0.116-55.243 12.517-73.584 32.277l-0.059 0.064c-18.245 19.651-29.441 46.068-29.441 75.1 0 0.148 0 0.295 0.001 0.443v-0.023 531.029c0 27.947 10.368 55.125 29.44 75.52zM811.221 803.712l-249.173-265.259c-2.632-2.8-4.612-6.244-5.677-10.070l-0.040-0.17-13.013-48.555 45.397 14.635c3.646 1.217 6.746 3.243 9.204 5.875l0.012 0.013 249.173 265.216c4.656 5.009 7.514 11.746 7.514 19.15 0 0.183-0.002 0.365-0.005 0.546v-0.027c-0.073 7.546-3.139 14.362-8.066 19.33l0.002-0.002c-4.447 4.482-10.608 7.256-17.418 7.256-0.132 0-0.263-0.001-0.394-0.003h0.020c-6.94-0.183-13.142-3.195-17.521-7.92l-0.015-0.016zM466.475 452.565c0.229 3.517 0.791 6.794 1.66 9.945l-0.081-0.345 22.357 83.413c3.968 14.763 11.52 28.373 21.973 39.509l249.173 265.259c17.237 18.347 41.045 29.099 66.176 29.568 0.521 0.011 1.135 0.017 1.75 0.017 25.461 0 48.519-10.292 65.24-26.942l-0.003 0.003c17.349-17.477 28.070-41.554 28.070-68.134 0-25.564-9.917-48.812-26.115-66.106l0.050 0.054-249.173-265.259c-10.254-10.91-23.113-19.255-37.589-24.051l-0.64-0.184-80.299-25.856c-1.194-0.416-2.766-0.857-4.368-1.218l-0.325-0.062-2.475-2.389-0.683-0.683c-2.987-2.901-6.827-6.656-10.069-9.515-1.451-1.28-4.011-3.456-6.869-5.376-2.579-1.73-5.541-3.217-8.686-4.312l-0.274-0.083c-3.37-1.216-7.26-1.919-11.313-1.919-18.946 0-34.304 15.358-34.304 34.304 0 1.822 0.142 3.61 0.416 5.355l-0.025-0.194c0.447 3.123 1.177 5.928 2.182 8.598l-0.092-0.278c1.109 2.987 2.517 5.845 3.413 7.68 3.361 6.355 6.052 11.029 8.862 15.621l-0.755-1.328 2.816 4.949zM324.053 410.965l0.019-0.013c1.62-1.179 2.673-3.090 2.673-5.247 0-0.953-0.206-1.859-0.559-2.633l-23.040-51.712c-9.813 17.152-12.459 32.171-8.619 42.112l0.341 0.683 0.049 0.081c0.391 0.606 0.812 1.19 1.231 1.711l6.089 7.762c1.265 1.585 2.772 2.969 4.535 4.142l4.996 3.303c1.717 1.152 3.783 1.824 6.007 1.824 2.355 0 4.535-0.754 6.278-2.013zM329.003 319.573l30.592 68.565c2.36 5.161 3.735 11.194 3.735 17.549 0 14.321-6.985 27.010-17.735 34.846l-0.123 0.085c-7.679 5.593-17.3 8.949-27.704 8.949-9.772 0-18.854-2.96-26.396-8.032l0.169 0.107-5.035-3.371c-4.949-3.285-9.387-7.339-13.013-11.989l-6.101-7.723c-2.838-3.465-5.222-7.453-6.972-11.766l-0.111-0.309c-10.453-27.477 0.853-57.557 14.933-79.573 3.595-5.606 7.051-10.379 10.743-14.951l-0.247 0.316-51.755-116.096c-0.88-2.068-1.391-4.474-1.391-7 0-10.109 8.195-18.304 18.304-18.304 7.224 0 13.47 4.185 16.447 10.262l0.048 0.108 46.208 103.68c5.589-4.139 11.221-7.68 16.768-10.24 10.667-5.035 21.504-3.627 29.995 0.981 8.064 4.352 13.952 11.392 17.621 18.645l17.195 34.005c5.787-9.704 16.229-16.103 28.165-16.103 11.227 0 21.132 5.661 27.016 14.284l0.073 0.113 24.917 36.949 25.088 48-32.427 16.939-24.149-46.208-19.499-29.013c-11.691 22.357-45.568 23.723-57.941-0.725l-21.077-41.771c-0.397-0.78-0.851-1.452-1.376-2.061l0.011 0.013c-5.66 3.224-10.554 6.813-14.992 10.89l0.059-0.053zM300.757 151.211c-1.711 2.784-2.725 6.156-2.725 9.765 0 6.553 3.343 12.326 8.416 15.706l0.069 0.043 198.4 128.555c2.738 1.813 6.098 2.892 9.711 2.892 6.392 0 11.995-3.379 15.12-8.448l0.044-0.077c1.734-2.798 2.762-6.192 2.762-9.826 0-6.569-3.359-12.354-8.452-15.73l-0.070-0.044-198.4-128.512c-2.733-1.805-6.087-2.88-9.692-2.88-6.404 0-12.017 3.392-15.138 8.478l-0.044 0.077z" />
<glyph unicode="&#xe914;" glyph-name="Email" d="M170.667 757.333c-29.44 0-53.333-23.893-53.333-53.333v-512c0-29.44 23.893-53.333 53.333-53.333h682.667c29.44 0 53.333 23.893 53.333 53.333v512c0 29.44-23.893 53.333-53.333 53.333h-682.667zM53.333 704c0 64.801 52.532 117.333 117.333 117.333v0h682.667c64.801 0 117.333-52.532 117.333-117.333v0-512c0-64.801-52.532-117.333-117.333-117.333v0h-682.667c-64.801 0-117.333 52.532-117.333 117.333v0 512zM58.325 678.485c5.769 8.977 15.705 14.84 27.010 14.84 6.364 0 12.294-1.858 17.277-5.060l-0.127 0.076 382.635-243.157c7.631-4.831 16.92-7.699 26.88-7.699s19.249 2.868 27.089 7.822l-0.209-0.123 0.085 0.085 382.549 243.072c4.739 2.928 10.484 4.663 16.634 4.663 17.673 0 32-14.327 32-32 0-11.091-5.643-20.865-14.214-26.606l-0.116-0.073-382.891-243.328c-17.287-10.985-38.346-17.507-60.928-17.507s-43.641 6.522-61.397 17.785l0.469-0.278-0.171 0.128-382.72 243.2c-8.96 5.772-14.809 15.698-14.809 26.99 0 6.372 1.862 12.309 5.072 17.296l-0.076-0.127z" />
<glyph unicode="&#xe915;" glyph-name="Country" d="M195.328 885.035c31.147 12.459 78.165 23.765 146.005 23.765 70.613 0 129.152-23.467 181.376-44.331l1.963-0.768c53.973-21.589 101.504-40.235 157.995-40.235 60.16 0 98.475 10.027 120.661 18.901 11.093 4.437 18.347 8.661 22.4 11.349 2.048 1.365 3.285 2.347 3.84 2.816l0.256 0.171c6.108 5.812 14.391 9.387 23.509 9.387 18.836 0 34.109-15.258 34.133-34.088v-512.002c0-0.008 0-0.017 0-0.027 0-9.419-3.815-17.947-9.984-24.123v0h-0.043v-0.043l-0.128-0.085-0.555-0.555-0.981-0.896c-3.635-3.204-7.616-6.276-11.79-9.082l-0.413-0.262c-10.019-6.632-21.511-12.652-33.613-17.468l-1.288-0.452c-31.147-12.501-78.165-23.808-146.005-23.808-70.571 0-129.152 23.467-181.333 44.331l-2.005 0.768c-53.888 21.589-101.461 40.235-157.995 40.235-60.16 0-98.432-10.027-120.661-18.901-8.601-3.347-15.979-7.161-22.883-11.643l0.483 0.294c-1.47-0.973-2.722-1.899-3.925-2.883l0.085 0.067-0.213-0.213c-6.113-5.836-14.413-9.427-23.552-9.427-18.851 0-34.133 15.282-34.133 34.133 0 0.014 0 0.029 0 0.043v-0.002 512c0.005 9.434 3.836 17.973 10.026 24.149l0.001 0.001 24.107-24.149c-8.123 8.030-15.979 15.913-23.776 23.854l-0.331 0.338h0.043l0.64 0.64c1.182 1.137 2.433 2.239 3.731 3.285l0.109 0.085c2.261 1.877 5.333 4.224 9.344 6.827 7.936 5.333 19.371 11.776 34.901 18.005zM204.8 814.208v-437.632c30.933 11.008 75.264 20.224 136.533 20.224 70.613 0 129.152-23.467 181.376-44.331l1.963-0.768c53.973-21.589 101.504-40.235 157.995-40.235 60.16 0 98.475 10.027 120.661 18.901 6.613 2.645 11.861 5.205 15.872 7.424v437.632c-30.933-10.965-75.221-20.224-136.533-20.224-70.571 0-129.152 23.467-181.333 44.331l-2.005 0.768c-53.888 21.589-101.461 40.235-157.995 40.235-60.16 0-98.432-10.027-120.661-18.901-6.342-2.512-11.565-5.005-16.601-7.795l0.729 0.371zM170.667 354.133c18.851 0 34.133-15.282 34.133-34.133v0-298.667c0-18.851-15.282-34.133-34.133-34.133s-34.133 15.282-34.133 34.133v0 298.667c0 18.851 15.282 34.133 34.133 34.133v0z" />
<glyph unicode="&#xe916;" glyph-name="Date-Time" d="M130.347 786.987c21.231 21.222 50.557 34.347 82.948 34.347 0.014 0 0.027 0 0.041 0h597.331c64.801 0 117.333-52.532 117.333-117.333v0-64c0-17.673-14.327-32-32-32s-32 14.327-32 32v0 64c0 29.455-23.878 53.333-53.333 53.333v0h-597.333c-29.455 0-53.333-23.878-53.333-53.333v0-597.333c0-29.455 23.878-53.333 53.333-53.333v0h149.333c17.673 0 32-14.327 32-32s-14.327-32-32-32v0h-149.333c-64.801 0-117.333 52.532-117.333 117.333v0 597.333c0 31.147 12.373 60.971 34.347 82.987zM682.667 906.667c17.673 0 32-14.327 32-32v0-170.667c0-17.673-14.327-32-32-32s-32 14.327-32 32v0 170.667c0 17.673 14.327 32 32 32v0zM341.333 906.667c17.673 0 32-14.327 32-32v0-170.667c0-17.673-14.327-32-32-32s-32 14.327-32 32v0 170.667c0 17.673 14.327 32 32 32v0zM96 533.333c0 17.673 14.327 32 32 32v0h213.333c17.673 0 32-14.327 32-32s-14.327-32-32-32v0h-213.333c-17.673 0-32 14.327-32 32v0zM682.667 394.667c17.673 0 32-14.327 32-32v0-82.773l52.011-41.557c7.355-5.916 12.022-14.914 12.022-25.003 0-17.679-14.332-32.011-32.011-32.011-7.591 0-14.564 2.642-20.051 7.057l0.062-0.048-64 51.2c-7.36 5.913-12.031 14.912-12.032 25.003v0 98.133c0 17.673 14.327 32 32 32v0zM682.667 501.333c-123.712 0-224-100.288-224-224s100.288-224 224-224v0c123.712 0 224 100.288 224 224s-100.288 224-224 224v0zM394.667 277.333c0 159.058 128.942 288 288 288s288-128.942 288-288v0c0-159.058-128.942-288-288-288s-288 128.942-288 288v0z" />
<glyph unicode="&#xe917;" glyph-name="Address" d="M512 842.667c-170.84 0-309.333-138.493-309.333-309.333v0c0-95.744 53.717-197.376 121.557-286.507 66.475-87.381 142.763-157.824 181.973-191.744 1.638-1.076 3.645-1.716 5.803-1.716s4.165 0.64 5.843 1.741l-0.040-0.025c39.253 33.92 115.499 104.363 181.973 191.744 67.84 89.131 121.557 190.763 121.557 286.507 0 170.84-138.493 309.333-309.333 309.333v0zM248.021 797.312c67.559 67.555 160.889 109.339 263.979 109.339 206.181 0 373.324-167.138 373.333-373.317v-0.001c0-117.333-64.427-233.088-134.613-325.291-70.912-93.141-151.68-167.381-192.171-202.368-12.641-10.148-28.878-16.286-46.549-16.286s-33.908 6.139-46.696 16.4l0.146-0.114c-40.491 34.987-121.259 109.227-192.171 202.368-70.144 92.16-134.613 208-134.613 325.291 0.004 103.091 41.794 196.421 109.354 263.978v0zM512 629.333c-53.019 0-96-42.981-96-96s42.981-96 96-96v0c53.019 0 96 42.981 96 96s-42.981 96-96 96v0zM352 533.333c0 88.366 71.634 160 160 160s160-71.634 160-160v0c0-88.366-71.634-160-160-160s-160 71.634-160 160v0z" />
<glyph unicode="&#xe918;" glyph-name="Number" d="M213.333 800c-27.861 0-53.333-24.32-53.333-58.069v-630.571c0-33.707 25.472-58.069 53.333-58.069h597.333c27.861 0 53.333 24.32 53.333 58.069v630.613c0 33.707-25.472 58.069-53.333 58.069h-597.333zM96 741.931c0 65.749 50.944 122.069 117.333 122.069h597.333c66.389 0 117.333-56.32 117.333-122.069v-630.571c0-65.749-50.944-122.069-117.333-122.069h-597.333c-66.389 0-117.333 56.32-117.333 122.069v630.613zM266.667 533.333c0 17.673 14.327 32 32 32v0h426.667c17.673 0 32-14.327 32-32s-14.327-32-32-32v0h-426.667c-17.673 0-32 14.327-32 32v0zM266.667 362.667c0 17.673 14.327 32 32 32v0h426.667c17.673 0 32-14.327 32-32s-14.327-32-32-32v0h-426.667c-17.673 0-32 14.327-32 32v0zM446.208 693.12c16.075-1.852 28.44-15.382 28.44-31.801 0-1.242-0.071-2.468-0.209-3.674l0.014 0.147-48-432c-2.313-15.599-15.611-27.432-31.672-27.432-17.673 0-32 14.327-32 32 0 0.885 0.036 1.762 0.106 2.629l-0.007-0.114 47.915 432c1.849 16.077 15.381 28.445 31.802 28.445 1.257 0 2.498-0.073 3.717-0.214l-0.149 0.014zM632.875 693.12c16.094-1.832 28.482-15.372 28.482-31.806 0-1.241-0.071-2.465-0.208-3.669l0.014 0.147-48.043-432c-1.843-16.086-15.38-28.463-31.808-28.463-17.676 0-32.005 14.329-32.005 32.005 0 1.248 0.071 2.479 0.21 3.689l-0.014-0.148 48 432c1.852 16.075 15.382 28.44 31.801 28.44 1.242 0 2.468-0.071 3.674-0.209l-0.147 0.014z" />
<glyph unicode="&#xe919;" glyph-name="Multiple-Choice" d="M160 800v-116.139h106.667v116.139h-106.667zM96 811.947c0 27.093 21.205 52.053 50.944 52.053h132.779c29.739 0 50.944-24.96 50.944-52.053v-140.075c0-27.093-21.205-52.053-50.944-52.053h-132.779c-29.739 0-50.944 24.96-50.944 52.053v140.075zM160 501.333v-116.139h106.667v116.139h-106.667zM96 513.28c0 27.093 21.205 52.053 50.944 52.053h132.779c29.739 0 50.944-24.96 50.944-52.053v-140.075c0-27.093-21.205-52.053-50.944-52.053h-132.779c-29.739 0-50.944 24.96-50.944 52.053v140.075zM160 202.667v-116.139h106.667v116.139h-106.667zM96 214.613c0 27.136 21.205 52.053 50.944 52.053h132.779c29.739 0 50.944-24.917 50.944-52.053v-140.075c0-27.093-21.205-52.053-50.944-52.053h-132.779c-29.739 0-50.944 24.96-50.944 52.053v140.075zM928 746.667c0-17.673-14.327-32-32-32v0h-426.667c-17.673 0-32 14.327-32 32s14.327 32 32 32v0h426.667c17.673 0 32-14.327 32-32v0zM928 448c0-17.673-14.327-32-32-32v0h-426.667c-17.673 0-32 14.327-32 32s14.327 32 32 32v0h426.667c17.673 0 32-14.327 32-32v0zM928 149.333c0-17.673-14.327-32-32-32v0h-426.667c-17.673 0-32 14.327-32 32s14.327 32 32 32v0h426.667c17.673 0 32-14.327 32-32v0z" />
<glyph unicode="&#xe91a;" glyph-name="Lookup" d="M384 906.667c-17.673 0-32-14.327-32-32v0-170.667c0-29.455-23.878-53.333-53.333-53.333v0h-170.667c-17.673 0-32-14.327-32-32s14.327-32 32-32v0h170.667c64.801 0 117.333 52.532 117.333 117.333v0 170.667c0 17.673-14.327 32-32 32v0zM808.32 872.32c-21.231 21.222-50.557 34.347-82.948 34.347-0.014 0-0.027 0-0.041 0h-383.998c-8.833-0.008-16.828-3.594-22.613-9.386v0l-213.333-213.333c-5.793-5.786-9.379-13.78-9.387-22.612v-554.669c0-64.801 52.532-117.333 117.333-117.333v0h384c17.673 0 32 14.327 32 32s-14.327 32-32 32v0h-384c-29.455 0-53.333 23.878-53.333 53.333v0 541.44l194.56 194.56h370.773c29.455 0 53.333-23.878 53.333-53.333v0-170.667c0-17.673 14.327-32 32-32s32 14.327 32 32v0 170.667c0 31.147-12.373 60.971-34.347 82.987zM707.584 218.624c4.988 3.366 11.134 5.373 17.749 5.373 11.057 0 20.804-5.608 26.552-14.134l0.072-0.114 85.333-128c3.248-4.924 5.181-10.965 5.181-17.457 0-17.673-14.327-32-32-32-10.934 0-20.587 5.484-26.359 13.851l-0.070 0.107-85.333 128c-3.366 4.988-5.373 11.134-5.373 17.749 0 11.057 5.608 20.804 14.134 26.552l0.114 0.072zM597.333 501.333c-76.583 0-138.667-62.083-138.667-138.667s62.083-138.667 138.667-138.667v0c76.583 0 138.667 62.083 138.667 138.667s-62.083 138.667-138.667 138.667v0zM394.667 362.667c0 111.93 90.737 202.667 202.667 202.667s202.667-90.737 202.667-202.667v0c0-111.93-90.737-202.667-202.667-202.667s-202.667 90.737-202.667 202.667v0z" />
<glyph unicode="&#xe91b;" glyph-name="Likert" d="M148.267 607.189c-10.411-7.808-13.867-16.128-13.867-22.656v-477.867c0-6.528 3.456-14.848 13.867-22.656 10.411-7.851 26.283-13.611 45.184-13.611h637.141c18.901 0 34.731 5.76 45.184 13.611 10.411 7.808 13.824 16.128 13.824 22.656v477.867c0 6.528-3.413 14.848-13.824 22.656-10.453 7.851-26.283 13.611-45.184 13.611h-637.141c-18.901 0-34.773-5.76-45.184-13.611zM109.867 658.389c22.528 16.896 52.181 26.411 83.584 26.411h637.141c31.403 0 61.013-9.515 83.584-26.411 22.528-16.896 39.424-42.667 39.424-73.856v-477.867c0-31.147-16.896-56.96-39.424-73.856s-52.181-26.411-83.584-26.411h-637.141c-31.403 0-61.013 9.515-83.584 26.411-22.528 16.896-39.467 42.667-39.467 73.856v477.867c0 31.147 16.939 56.96 39.467 73.856zM70.4 806.4c0 17.673 14.327 32 32 32v0h819.2c17.673 0 32-14.327 32-32s-14.327-32-32-32h-819.2c-17.673 0-32 14.327-32 32v0zM96 362.667c0 17.673 14.327 32 32 32v0h768c17.673 0 32-14.327 32-32s-14.327-32-32-32v0h-768c-17.673 0-32 14.327-32 32v0zM292.565 662.869c17.673 0 32-14.327 32-32v0-585.216c0-17.673-14.327-32-32-32s-32 14.327-32 32v0 585.216c0 17.673 14.327 32 32 32v0zM494.933 507.733c0-23.576-19.112-42.688-42.688-42.688s-42.688 19.112-42.688 42.688v0c0 23.564 19.103 42.667 42.667 42.667s42.667-19.103 42.667-42.667v0zM494.933 200.533c0-23.576-19.112-42.688-42.688-42.688s-42.688 19.112-42.688 42.688v0c0 23.564 19.103 42.667 42.667 42.667s42.667-19.103 42.667-42.667v0zM665.6 507.733c0-23.564-19.103-42.667-42.667-42.667s-42.667 19.103-42.667 42.667v0c0 23.564 19.103 42.667 42.667 42.667s42.667-19.103 42.667-42.667v0zM665.6 200.533c0-23.564-19.103-42.667-42.667-42.667s-42.667 19.103-42.667 42.667v0c0 23.564 19.103 42.667 42.667 42.667s42.667-19.103 42.667-42.667v0zM836.267 507.733c0-23.564-19.103-42.667-42.667-42.667s-42.667 19.103-42.667 42.667v0c0 23.564 19.103 42.667 42.667 42.667s42.667-19.103 42.667-42.667v0zM836.267 200.533c0-23.564-19.103-42.667-42.667-42.667s-42.667 19.103-42.667 42.667v0c0 23.564 19.103 42.667 42.667 42.667s42.667-19.103 42.667-42.667v0z" />
<glyph unicode="&#xe91c;" glyph-name="Last-Name" d="M390.101 763.435c-83.323 0-150.869-67.547-150.869-150.869s67.547-150.869 150.869-150.869v0c83.323 0 150.869 67.547 150.869 150.869s-67.547 150.869-150.869 150.869v0zM175.275 612.565c-0.014 0.9-0.021 1.963-0.021 3.028 0 118.669 96.2 214.869 214.869 214.869s214.869-96.2 214.869-214.869c0-1.065-0.008-2.127-0.023-3.188l0.002 0.161c-1.707-117.36-97.244-211.842-214.848-211.842s-213.141 94.482-214.846 211.681l-0.002 0.161zM150.016 343.083c62.464 75.051 148.651 118.613 240.085 118.613s177.579-43.605 240.085-118.613c63.147-75.733 84.48-155.307 84.48-257.749 0-17.673-14.327-32-32-32s-32 14.327-32 32v0c0 91.563-18.475 155.349-69.675 216.747-51.755 62.165-120.619 95.616-190.891 95.616-70.229 0-139.093-33.451-190.933-95.573-51.925-62.336-81.835-147.925-81.835-238.123 0-17.673-14.327-32-32-32s-32 14.327-32 32v0c0 103.808 34.304 204.245 96.683 279.083zM682.667 32h-597.333v64h597.333v-64zM682.667 821.333c17.673 0 32-14.327 32-32v0-693.333h224c17.673 0 32-14.327 32-32s-14.327-32-32-32v0h-288v757.333c0 17.673 14.327 32 32 32v0z" />
<glyph unicode="&#xe91d;" glyph-name="Image-Upload" d="M213.333 800h597.333c29.455 0 53.333-23.878 53.333-53.333v-349.44l-77.847 77.89c-21.163 20.744-50.152 33.534-82.127 33.534-32.402 0-61.736-13.134-82.97-34.369l-378.283-378.283h-29.44c-29.455 0-53.333 23.878-53.333 53.333v597.333c0 29.455 23.878 53.333 53.333 53.333zM333.227 96l333.056 333.056c9.65 9.643 22.978 15.607 37.699 15.607 14.507 0 27.662-5.792 37.277-15.19l132.129-132.086c5.789-5.782 13.784-9.359 22.613-9.359 17.663 0 31.984 14.311 32 31.97v426.669c0 64.801-52.532 117.333-117.333 117.333v0h-597.333c-64.801 0-117.333-52.532-117.333-117.333v0-597.333c0-64.801 52.532-117.333 117.333-117.333v0h226.133c17.673 0 32 14.327 32 32s-14.327 32-32 32v0h-106.24zM702.72 278.613c5.789 5.782 13.784 9.359 22.613 9.359s16.824-3.576 22.614-9.359v0l128-128c5.321-5.699 8.588-13.376 8.588-21.815 0-17.673-14.327-32-32-32-8.44 0-16.116 3.267-21.834 8.606l0.019-0.017-105.387 105.387-105.387-105.387c-5.699-5.321-13.376-8.588-21.815-8.588-17.673 0-32 14.327-32 32 0 8.44 3.267 16.116 8.606 21.834l-0.017-0.019 128 128zM725.333 288c17.673 0 32-14.327 32-32v0-234.667c0-17.673-14.327-32-32-32s-32 14.327-32 32v0 234.667c0 17.673 14.327 32 32 32v0zM384 629.333c-29.455 0-53.333-23.878-53.333-53.333s23.878-53.333 53.333-53.333v0c29.455 0 53.333 23.878 53.333 53.333s-23.878 53.333-53.333 53.333v0zM266.667 576c0 64.801 52.532 117.333 117.333 117.333s117.333-52.532 117.333-117.333v0c0-64.801-52.532-117.333-117.333-117.333s-117.333 52.532-117.333 117.333v0z" />
<glyph unicode="&#xe91e;" glyph-name="Hidden-Fields" d="M728.021 656c-61.775 36.848-136.238 58.632-215.79 58.632-17.78 0-35.305-1.088-52.514-3.202l2.063 0.207c-1.14-0.144-2.459-0.226-3.797-0.226-17.68 0-32.013 14.333-32.013 32.013 0 16.342 12.245 29.824 28.060 31.771l0.155 0.016c17.415 2.192 37.569 3.444 58.014 3.444 203.853 0 378.656-124.38 452.658-301.39l1.2-3.238c2.949-7.714 4.657-16.635 4.657-25.956 0-9.743-1.866-19.050-5.26-27.583l0.177 0.504c-16.768-40.661-38.955-78.933-65.92-113.664-5.911-7.562-15.033-12.378-25.28-12.378-17.676 0-32.004 14.329-32.004 32.004 0 7.429 2.531 14.266 6.778 19.697l-0.053-0.070c22.169 28.328 41.309 60.659 55.993 95.336l1.052 2.797c0.338 0.994 0.532 2.138 0.532 3.328s-0.195 2.334-0.554 3.403l0.022-0.075c-36.626 86.926-98.431 157.26-176.215 203.549l-1.961 1.081zM442.155 559.915c6.028-5.827 9.771-13.986 9.771-23.019 0-8.63-3.416-16.462-8.97-22.217l0.009 0.010c-16.377-17.186-26.454-40.505-26.454-66.176 0-53.019 42.981-96 96-96 25.672 0 48.99 10.077 66.215 26.49l-0.039-0.037c5.75 5.553 13.59 8.975 22.229 8.975 17.682 0 32.015-14.334 32.015-32.015 0-9.042-3.749-17.209-9.777-23.031l-0.009-0.009c-28.742-27.783-67.943-44.903-111.143-44.903-88.366 0-160 71.634-160 160 0 43.21 17.129 82.42 44.967 111.209l-0.043-0.045c5.825 6.015 13.975 9.749 22.998 9.749 8.64 0 16.48-3.424 22.238-8.99l-0.009 0.009zM305.152 698.624c2.827-4.676 4.499-10.324 4.499-16.362 0-11.634-6.208-21.817-15.492-27.419l-0.144-0.080c-78.783-47.377-139.858-117.226-175.161-200.636l-1.052-2.799c-0.338-0.994-0.532-2.138-0.532-3.328s0.195-2.334 0.554-3.403l-0.022 0.075c65.833-155.916 217.456-263.349 394.172-263.349 80.226 0 155.28 22.142 219.385 60.648l-1.93-1.075c4.552 2.64 10.016 4.197 15.843 4.197 17.673 0 32-14.327 32-32 0-11.456-6.020-21.506-15.069-27.159l-0.135-0.078c-71.505-43.053-157.825-68.521-250.094-68.521-203.903 0-378.756 124.376-452.832 301.4l-1.202 3.238c-2.949 7.714-4.657 16.635-4.657 25.956 0 9.743 1.866 19.050 5.26 27.583l-0.177-0.504c41.739 99.492 112.099 180.113 200.715 233.518l2.208 1.234c4.671 2.82 10.312 4.488 16.343 4.488 11.646 0 21.84-6.222 27.437-15.523l0.081-0.144zM62.72 897.28c5.789 5.782 13.784 9.359 22.613 9.359s16.824-3.576 22.614-9.359v0l853.333-853.333c6.274-5.858 10.185-14.178 10.185-23.412 0-17.673-14.327-32-32-32-9.234 0-17.554 3.911-23.394 10.166l-0.017 0.019-853.333 853.333c-5.782 5.789-9.359 13.784-9.359 22.613s3.576 16.824 9.359 22.614v0z" />
<glyph unicode="&#xe91f;" glyph-name="First-Name" d="M390.101 763.435c-83.323 0-150.869-67.547-150.869-150.869s67.547-150.869 150.869-150.869v0c83.323 0 150.869 67.547 150.869 150.869s-67.547 150.869-150.869 150.869v0zM175.275 612.565c-0.014 0.9-0.021 1.963-0.021 3.028 0 118.669 96.2 214.869 214.869 214.869s214.869-96.2 214.869-214.869c0-1.065-0.008-2.127-0.023-3.188l0.002 0.161c-1.707-117.36-97.244-211.842-214.848-211.842s-213.141 94.482-214.846 211.681l-0.002 0.161zM150.016 343.083c62.507 75.008 148.693 118.613 240.085 118.613s177.579-43.605 240.085-118.613c63.147-75.733 84.48-155.307 84.48-257.749 0-17.673-14.327-32-32-32s-32 14.327-32 32v0c0 91.563-18.475 155.349-69.675 216.747-51.755 62.165-120.619 95.616-190.891 95.616-70.229 0-139.093-33.451-190.933-95.573-51.925-62.336-81.835-147.925-81.835-238.123 0-17.673-14.327-32-32-32s-32 14.327-32 32v0c0 103.808 34.304 204.245 96.683 279.083zM735.488 763.435c0 0 0 0 0 0-4.76 0-8.619-3.859-8.619-8.619 0-0.015 0-0.030 0-0.045v0.002-650.155c0-40.107-32.512-72.619-72.619-72.619h-568.917c-17.673 0-32 14.327-32 32s14.327 32 32 32v0h568.917c4.736 0 8.619 3.84 8.619 8.619v650.155c0 40.107 32.512 72.661 72.619 72.661h203.179c17.673 0 32-14.327 32-32s-14.327-32-32-32v0h-203.179zM683.179 470.357c0 17.673 14.327 32 32 32v0h142.251c17.673 0 32-14.327 32-32s-14.327-32-32-32v0h-142.251c-17.673 0-32 14.327-32 32v0z" />
<glyph unicode="&#xe920;" glyph-name="File-Upload" d="M173.013 872.32c21.231 21.222 50.557 34.347 82.948 34.347 0.014 0 0.027 0 0.041 0h383.998c8.833-0.008 16.828-3.594 22.613-9.386v0l213.333-213.333c6.016-5.973 9.387-14.123 9.387-22.613v-554.667c0-64.801-52.532-117.333-117.333-117.333v0h-192c-17.673 0-32 14.327-32 32s14.327 32 32 32v0h192c29.455 0 53.333 23.878 53.333 53.333v0 541.44l-194.56 194.56h-370.773c-29.455 0-53.333-23.878-53.333-53.333v0-277.333c0-17.673-14.327-32-32-32s-32 14.327-32 32v0 277.333c0 31.147 12.373 60.971 34.347 82.987zM597.333 906.667c17.673 0 32-14.327 32-32v0-170.667c0-29.455 23.878-53.333 53.333-53.333v0h170.667c17.673 0 32-14.327 32-32s-14.327-32-32-32v0h-170.667c-64.801 0-117.333 52.532-117.333 117.333v0 170.667c0 17.673 14.327 32 32 32v0zM361.387 470.613c5.789 5.782 13.784 9.359 22.613 9.359s16.824-3.576 22.614-9.359v0l170.667-170.667c6.274-5.858 10.185-14.178 10.185-23.412 0-17.673-14.327-32-32-32-9.234 0-17.554 3.911-23.394 10.166l-0.017 0.019-148.053 148.053-148.053-148.053c-5.699-5.321-13.376-8.588-21.815-8.588-17.673 0-32 14.327-32 32 0 8.44 3.267 16.116 8.606 21.834l-0.017-0.019 170.667 170.667zM380.16 480c17.673 0 32-14.327 32-32v0-384c0-17.673-14.327-32-32-32s-32 14.327-32 32v0 384c0 17.673 14.327 32 32 32v0z" />
<glyph unicode="&#xe921;" glyph-name="Dropdown" d="M213.333 800c-27.861 0-53.333-24.32-53.333-58.069v-630.571c0-33.707 25.472-58.069 53.333-58.069h597.333c27.861 0 53.333 24.32 53.333 58.069v630.613c0 33.707-25.472 58.069-53.333 58.069h-597.333zM96 741.931c0 65.749 50.944 122.069 117.333 122.069h597.333c66.389 0 117.333-56.32 117.333-122.069v-630.571c0-65.749-50.944-122.069-117.333-122.069h-597.333c-66.389 0-117.333 56.32-117.333 122.069v630.613zM318.72 513.28c5.789 5.782 13.784 9.359 22.613 9.359s16.824-3.576 22.614-9.359v0l148.053-148.053 148.053 148.053c5.699 5.321 13.376 8.588 21.815 8.588 17.673 0 32-14.327 32-32 0-8.44-3.267-16.116-8.606-21.834l0.017 0.019-170.667-170.667c-5.789-5.782-13.784-9.359-22.613-9.359s-16.824 3.576-22.614 9.359v0l-170.667 170.667c-5.782 5.789-9.359 13.784-9.359 22.613s3.576 16.824 9.359 22.614v0z" />
<glyph unicode="&#xe922;" glyph-name="Divider" d="M96 448c0 17.673 14.327 32 32 32v0h768c17.673 0 32-14.327 32-32s-14.327-32-32-32v0h-768c-17.673 0-32 14.327-32 32v0zM489.387 897.28c5.789 5.782 13.784 9.359 22.613 9.359s16.824-3.576 22.614-9.359v0l170.667-170.667c5.321-5.699 8.588-13.376 8.588-21.815 0-17.673-14.327-32-32-32-8.44 0-16.116 3.267-21.834 8.606l0.019-0.017-148.053 148.053-148.053-148.053c-5.858-6.274-14.178-10.185-23.412-10.185-17.673 0-32 14.327-32 32 0 9.234 3.911 17.554 10.166 23.394l0.019 0.017 170.667 170.667zM318.72 214.613c5.789 5.782 13.784 9.359 22.613 9.359s16.824-3.576 22.614-9.359v0l148.053-148.053 148.053 148.053c5.699 5.321 13.376 8.588 21.815 8.588 17.673 0 32-14.327 32-32 0-8.44-3.267-16.116-8.606-21.834l0.017 0.019-170.667-170.667c-5.789-5.782-13.784-9.359-22.613-9.359s-16.824 3.576-22.614 9.359v0l-170.667 170.667c-5.782 5.789-9.359 13.784-9.359 22.613s3.576 16.824 9.359 22.614v0zM512 906.667c17.673 0 32-14.327 32-32v0-277.333c0-17.673-14.327-32-32-32s-32 14.327-32 32v0 277.333c0 17.673 14.327 32 32 32v0zM512 352c17.673 0 32-14.327 32-32v0-277.333c0-17.673-14.327-32-32-32s-32 14.327-32 32v0 277.333c0 17.673 14.327 32 32 32v0z" />
<glyph unicode="&#xe923;" glyph-name="Custom-Html" d="M213.333 800c-27.861 0-53.333-24.32-53.333-58.069v-630.571c0-33.707 25.472-58.069 53.333-58.069h597.333c27.861 0 53.333 24.32 53.333 58.069v630.613c0 33.707-25.472 58.069-53.333 58.069h-597.333zM96 741.931c0 65.749 50.944 122.069 117.333 122.069h597.333c66.389 0 117.333-56.32 117.333-122.069v-630.571c0-65.749-50.944-122.069-117.333-122.069h-597.333c-66.389 0-117.333 56.32-117.333 122.069v630.613zM620.032 545.28c5.792 5.795 13.794 9.38 22.635 9.38s16.843-3.585 22.634-9.38l96-96c5.782-5.789 9.359-13.784 9.359-22.613s-3.576-16.824-9.359-22.614v0l-96-96c-5.699-5.321-13.376-8.588-21.815-8.588-17.673 0-32 14.327-32 32 0 8.44 3.267 16.116 8.606 21.834l-0.017-0.019 73.387 73.387-73.387 73.387c-5.782 5.789-9.359 13.784-9.359 22.613s3.576 16.824 9.359 22.614v0zM374.613 545.28c5.782-5.789 9.359-13.784 9.359-22.613s-3.576-16.824-9.359-22.614v0l-73.387-73.387 73.387-73.387c6.274-5.858 10.185-14.178 10.185-23.412 0-17.673-14.327-32-32-32-9.234 0-17.554 3.911-23.394 10.166l-0.017 0.019-96 96c-5.782 5.789-9.359 13.784-9.359 22.613s3.576 16.824 9.359 22.614v0l96 96c5.789 5.782 13.784 9.359 22.613 9.359s16.824-3.576 22.614-9.359v0zM566.869 649.216c13.12-4.193 22.454-16.278 22.454-30.543 0-3.415-0.535-6.704-1.525-9.79l0.063 0.227-119.979-384c-4.197-13.12-16.283-22.452-30.549-22.452-17.678 0-32.009 14.331-32.009 32.009 0 3.412 0.534 6.7 1.523 9.784l-0.063-0.227 119.979 384c4.193 13.12 16.278 22.454 30.543 22.454 3.415 0 6.704-0.535 9.79-1.525l-0.227 0.063z" />
<glyph unicode="&#xe924;" glyph-name="Credit-Card" d="M213.333 800c-29.44 0-53.333-23.893-53.333-53.333v-597.333c0-29.44 23.893-53.333 53.333-53.333h597.333c29.44 0 53.333 23.893 53.333 53.333v597.333c0 29.44-23.893 53.333-53.333 53.333h-597.333zM96 746.667c0 64.801 52.532 117.333 117.333 117.333v0h597.333c64.801 0 117.333-52.532 117.333-117.333v0-597.333c0-64.801-52.532-117.333-117.333-117.333v0h-597.333c-64.801 0-117.333 52.532-117.333 117.333v0 597.333zM213.333 629.333c-29.455 0-53.333-23.878-53.333-53.333v0c0-17.673-14.327-32-32-32s-32 14.327-32 32v0c0 64.801 52.532 117.333 117.333 117.333v0h597.333c64.801 0 117.333-52.532 117.333-117.333v0c0-17.673-14.327-32-32-32s-32 14.327-32 32v0c0 29.455-23.878 53.333-53.333 53.333v0h-597.333zM96 490.667c0 17.673 14.327 32 32 32v0h128c40.363 0 83.328-14.72 112.043-47.403l44.757-36.608c0.851-0.703 1.616-1.401 2.346-2.133l0.001-0.001c55.765-55.808 142.208-55.808 197.973 0 0.731 0.733 1.496 1.431 2.293 2.090l0.054 0.043 45.781 37.419c26.453 25.813 67.797 46.592 111.019 46.592h123.733c17.673 0 32-14.327 32-32s-14.327-32-32-32v0h-123.733c-24.363 0-50.688-12.715-66.987-29.013-0.73-0.735-1.495-1.432-2.293-2.091l-0.053-0.043-45.739-37.461c-36.571-36.704-87.164-59.415-143.061-59.415s-106.491 22.711-143.056 59.409l-0.006 0.006-45.739 37.461c-1.585 1.303-2.996 2.7-4.269 4.217l-0.040 0.050c-13.952 16.725-38.144 26.88-65.024 26.88h-128c-17.673 0-32 14.327-32 32v0z" />
<glyph unicode="&#xe925;" glyph-name="Coupon" d="M87.68 744.32c21.231 21.222 50.557 34.347 82.948 34.347 0.014 0 0.027 0 0.041 0h682.665c64.801 0 117.333-52.532 117.333-117.333v0-85.333c0-17.673-14.327-32-32-32v0c-53.019 0-96-42.981-96-96s42.981-96 96-96v0c17.673 0 32-14.327 32-32v0-85.333c0-64.801-52.532-117.333-117.333-117.333v0h-682.667c-64.801 0-117.333 52.532-117.333 117.333v0 85.333c0 17.673 14.327 32 32 32v0c53.019 0 96 42.981 96 96s-42.981 96-96 96v0c-17.673 0-32 14.327-32 32v0 85.333c0 31.147 12.373 60.971 34.347 82.987zM170.667 714.667c-29.455 0-53.333-23.878-53.333-53.333v0-56.576c73.53-15.427 127.951-79.737 127.951-156.757s-54.421-141.33-126.909-156.574l-1.042-0.183v-56.576c0-29.455 23.878-53.333 53.333-53.333v0h682.667c29.455 0 53.333 23.878 53.333 53.333v0 56.576c-73.53 15.427-127.951 79.737-127.951 156.757s54.421 141.33 126.909 156.574l1.042 0.183v56.576c0 29.455-23.878 53.333-53.333 53.333v0h-682.667zM554.667 778.667c17.673 0 32-14.327 32-32v0-85.333c0-17.673-14.327-32-32-32s-32 14.327-32 32v0 85.333c0 17.673 14.327 32 32 32v0zM554.667 266.667c17.673 0 32-14.327 32-32v0-85.333c0-17.673-14.327-32-32-32s-32 14.327-32 32v0 85.333c0 17.673 14.327 32 32 32v0zM554.667 586.667c17.673 0 32-14.327 32-32v0-64c0-17.673-14.327-32-32-32s-32 14.327-32 32v0 64c0 17.673 14.327 32 32 32v0zM554.667 416c17.673 0 32-14.327 32-32v0-64c0-17.673-14.327-32-32-32s-32 14.327-32 32v0 64c0 17.673 14.327 32 32 32v0z" />
<glyph unicode="&#xe926;" glyph-name="Color" d="M576 661.333c11.782 0 21.333 9.551 21.333 21.333s-9.551 21.333-21.333 21.333v0c-11.782 0-21.333-9.551-21.333-21.333s9.551-21.333 21.333-21.333v0zM576 672c5.891 0 10.667 4.776 10.667 10.667s-4.776 10.667-10.667 10.667v0c-5.891 0-10.667-4.776-10.667-10.667s4.776-10.667 10.667-10.667v0zM522.667 682.667c0 29.455 23.878 53.333 53.333 53.333s53.333-23.878 53.333-53.333v0c0-29.455-23.878-53.333-53.333-53.333s-53.333 23.878-53.333 53.333v0zM746.667 490.667c11.782 0 21.333 9.551 21.333 21.333s-9.551 21.333-21.333 21.333v0c-11.782 0-21.333-9.551-21.333-21.333s9.551-21.333 21.333-21.333v0zM746.667 501.333c5.891 0 10.667 4.776 10.667 10.667s-4.776 10.667-10.667 10.667v0c-5.891 0-10.667-4.776-10.667-10.667s4.776-10.667 10.667-10.667v0zM693.333 512c0 29.455 23.878 53.333 53.333 53.333s53.333-23.878 53.333-53.333v0c0-29.455-23.878-53.333-53.333-53.333s-53.333 23.878-53.333 53.333v0zM362.667 618.667c11.782 0 21.333 9.551 21.333 21.333s-9.551 21.333-21.333 21.333v0c-11.782 0-21.333-9.551-21.333-21.333s9.551-21.333 21.333-21.333v0zM362.667 629.333c5.891 0 10.667 4.776 10.667 10.667s-4.776 10.667-10.667 10.667v0c-5.891 0-10.667-4.776-10.667-10.667s4.776-10.667 10.667-10.667v0zM309.333 640c0 29.455 23.878 53.333 53.333 53.333s53.333-23.878 53.333-53.333v0c0-29.455-23.878-53.333-53.333-53.333s-53.333 23.878-53.333 53.333v0zM277.333 405.333c11.782 0 21.333 9.551 21.333 21.333s-9.551 21.333-21.333 21.333v0c-11.782 0-21.333-9.551-21.333-21.333s9.551-21.333 21.333-21.333v0zM277.333 416c5.891 0 10.667 4.776 10.667 10.667s-4.776 10.667-10.667 10.667v0c-5.891 0-10.667-4.776-10.667-10.667s4.776-10.667 10.667-10.667v0zM224 426.667c0 29.455 23.878 53.333 53.333 53.333s53.333-23.878 53.333-53.333v0c0-29.455-23.878-53.333-53.333-53.333s-53.333 23.878-53.333 53.333v0zM53.333 448c0 252.331 206.336 458.667 458.667 458.667 247.040 0 457.045-182.059 458.325-409.003v-0.171c0-147.84-121.173-268.971-269.013-268.971h-85.717c-0.218 0.005-0.475 0.007-0.732 0.007-20.925 0-37.888-16.963-37.888-37.888 0-0.258 0.003-0.514 0.008-0.771l-0.001 0.038v-0.555c0-12.544 3.499-19.627 9.259-25.344 17.218-18.492 27.856-43.311 28.074-70.612v-0.044c0-57.045-44.373-104.021-102.315-104.021-252.331 0-458.667 206.336-458.667 458.667zM512 842.667c-217.003 0-394.667-177.664-394.667-394.667s177.664-394.667 394.667-394.667c21.035 0 38.315 16.683 38.315 40.021-0.179 10.066-3.963 19.216-10.11 26.245l0.041-0.048c-18.347 18.731-27.221 42.24-27.264 69.547-0.007 0.435-0.010 0.947-0.010 1.461 0 56.318 45.655 101.973 101.973 101.973 0.514 0 1.027-0.004 1.539-0.011l-0.077 0.001h84.907c112.469 0 204.971 92.416 205.013 204.885-1.109 185.003-175.403 345.259-394.325 345.259z" />
<glyph unicode="&#xe927;" glyph-name="Checkbox" d="M213.333 800c-27.861 0-53.333-24.32-53.333-58.069v-630.571c0-33.707 25.472-58.069 53.333-58.069h597.333c27.861 0 53.333 24.32 53.333 58.069v630.613c0 33.707-25.472 58.069-53.333 58.069h-597.333zM96 741.931c0 65.749 50.944 122.069 117.333 122.069h597.333c66.389 0 117.333-56.32 117.333-122.069v-630.571c0-65.749-50.944-122.069-117.333-122.069h-597.333c-66.389 0-117.333 56.32-117.333 122.069v630.613zM747.947 598.613c5.782-5.789 9.359-13.784 9.359-22.613s-3.576-16.824-9.359-22.614v0l-293.291-293.333c-5.792-5.795-13.794-9.38-22.635-9.38s-16.843 3.585-22.634 9.38l-133.334 133.334c-6.274 5.858-10.185 14.178-10.185 23.412 0 17.673 14.327 32 32 32 9.234 0 17.554-3.911 23.394-10.166l0.017-0.019 110.72-110.677 270.72 270.677c5.789 5.782 13.784 9.359 22.613 9.359s16.824-3.576 22.614-9.359v0z" />
<glyph unicode="&#xe928;" glyph-name="Captcha" d="M500.48 838.485c-77.824-67.84-191.573-123.819-287.147-123.819-5.891 0-10.667-4.776-10.667-10.667v0-298.667c0-98.219 34.005-170.24 87.808-225.323 54.656-55.979 131.243-95.957 217.899-125.867l0.725-0.256c2.261-0.853 4.736-0.896 7.040-0.128 86.4 30.123 162.816 70.144 217.429 126.165 53.76 55.168 87.765 127.189 87.765 225.408v298.667c0 5.891-4.776 10.667-10.667 10.667v0c-95.573 0-208.939 55.509-287.147 123.819-3.092 2.608-7.121 4.194-11.52 4.194s-8.428-1.585-11.547-4.216l0.027 0.022zM458.795 887.040c14.219 12.202 32.845 19.63 53.205 19.63s38.986-7.428 53.315-19.722l-0.11 0.092 0.299-0.213c71.083-62.208 170.155-108.16 245.163-108.16 41.237 0 74.667-33.429 74.667-74.667v0-298.667c0-115.115-40.661-203.093-105.941-270.080-64.427-66.048-151.296-110.293-242.347-141.995l-0.256-0.085c-7.147-2.504-15.386-3.95-23.963-3.95-9.209 0-18.029 1.667-26.174 4.716l0.515-0.169c-91.179 31.488-178.091 75.563-242.475 141.525-65.365 66.944-106.027 154.923-106.027 270.037v298.667c0 41.237 33.429 74.667 74.667 74.667v0c74.965 0 174.464 46.379 245.205 108.16l0.256 0.213zM662.613 555.947c5.782-5.789 9.359-13.784 9.359-22.613s-3.576-16.824-9.359-22.614v0l-170.667-170.667c-5.789-5.782-13.784-9.359-22.613-9.359s-16.824 3.576-22.614 9.359v0l-85.333 85.333c-6.274 5.858-10.185 14.178-10.185 23.412 0 17.673 14.327 32 32 32 9.234 0 17.554-3.911 23.394-10.166l0.017-0.019 62.72-62.72 148.053 148.053c5.789 5.782 13.784 9.359 22.613 9.359s16.824-3.576 22.614-9.359v0z" />
<glyph unicode="&#xe929;" glyph-name="Integration" d="M332.8 725.333c0 54.198-43.936 98.133-98.133 98.133s-98.133-43.936-98.133-98.133c0-54.198 43.936-98.133 98.133-98.133v0-51.2c-82.475 0-149.333 66.859-149.333 149.333s66.859 149.333 149.333 149.333v0c82.475 0 149.333-66.859 149.333-149.333s-66.859-149.333-149.333-149.333v0 51.2c54.198 0 98.133 43.936 98.133 98.133v0zM887.467 426.667c0 54.198-43.936 98.133-98.133 98.133s-98.133-43.936-98.133-98.133c0-54.198 43.936-98.133 98.133-98.133v0-51.2c-82.475 0-149.333 66.859-149.333 149.333s66.859 149.333 149.333 149.333v0c82.475 0 149.333-66.859 149.333-149.333s-66.859-149.333-149.333-149.333v0 51.2c54.198 0 98.133 43.936 98.133 98.133v0zM332.8 170.667c0 54.198-43.936 98.133-98.133 98.133s-98.133-43.936-98.133-98.133c0-54.198 43.936-98.133 98.133-98.133v0-51.2c-82.475 0-149.333 66.859-149.333 149.333s66.859 149.333 149.333 149.333v0c82.475 0 149.333-66.859 149.333-149.333s-66.859-149.333-149.333-149.333v0 51.2c54.198 0 98.133 43.936 98.133 98.133v0zM608.768 556.203l4.395-2.731c6.012-4.729 9.838-12.004 9.838-20.172 0-14.138-11.462-25.6-25.6-25.6-2.377 0-4.677 0.324-6.861 0.93l0.18-0.043-4.821 1.877-256 128c-9.083 4.066-15.297 13.025-15.297 23.435 0 14.138 11.462 25.6 25.6 25.6 4.618 0 8.951-1.223 12.692-3.363l-0.125 0.066 256-128zM187.733 490.667l0.512 5.163c2.455 11.781 12.753 20.506 25.088 20.506s22.633-8.724 25.059-20.339l0.029-0.166 0.512-5.163v-170.667c0-14.138-11.462-25.6-25.6-25.6s-25.6 11.462-25.6 25.6v0 170.667zM669.525 384.597l4.693 2.261c2.535 0.923 5.461 1.456 8.511 1.456 14.138 0 25.6-11.462 25.6-25.6 0-7.479-3.207-14.209-8.321-18.889l-0.019-0.017-4.139-3.072-213.333-128c-3.965-2.645-8.839-4.221-14.082-4.221-14.138 0-25.6 11.462-25.6 25.6 0 9.65 5.34 18.053 13.225 22.416l0.131 0.067 213.333 128z" />
<glyph unicode="&#xe92a;" glyph-name="Payment" d="M913.067 469.333c0 32.99-26.744 59.733-59.733 59.733v0h-682.667c-32.99 0-59.733-26.744-59.733-59.733v0-341.333c0-32.99 26.744-59.733 59.733-59.733v0h682.667c32.99 0 59.733 26.744 59.733 59.733v0 341.333zM964.267 128c0-61.267-49.667-110.933-110.933-110.933v0h-682.667c-61.267 0-110.933 49.667-110.933 110.933v0 341.333c0 61.267 49.667 110.933 110.933 110.933v0h682.667c61.267 0 110.933-49.667 110.933-110.933v0-341.333zM682.667 298.667c0 82.475-66.859 149.333-149.333 149.333s-149.333-66.859-149.333-149.333v0c0-82.475 66.859-149.333 149.333-149.333s149.333 66.859 149.333 149.333v0zM722.517 298.667c0-104.483-84.701-189.184-189.184-189.184s-189.184 84.701-189.184 189.184v0c0 104.483 84.701 189.184 189.184 189.184s189.184-84.701 189.184-189.184v0zM576 340.267c0.768-10.112 6.272-11.52 8.533-11.733s12.8 1.579 12.8 11.733c0 30.293-29.397 44.075-53.333 47.232v13.653c-2.645 4.267-10.667 4.181-10.667 4.181s-7.68 0.085-10.667-4.181v-13.653c-23.936-3.157-53.333-16.981-53.333-47.232 0-28.843 28.416-43.861 53.333-47.232v-53.035c-15.445 2.688-32 10.923-32 25.6-1.323 7.339-3.029 10.197-8.533 11.733-8.107 0.64-11.733-1.109-12.8-11.733 0-27.605 25.856-43.947 53.333-47.317v-12.16c2.688-4.352 4.779-5.76 10.667-5.589 5.845 0 8.533 0.981 10.667 5.589v12.245c23.936 3.157 53.333 16.981 53.333 47.232 0 30.293-29.397 44.075-53.333 47.232v53.035c14.165-2.56 32-10.027 32-25.6zM490.667 340.267c0 15.573 17.835 23.040 32 25.6v-51.2c-14.635 2.688-32 10.667-32 25.6zM576 265.6c0-15.573-17.835-23.040-32-25.6v51.2c14.165-2.56 32-10.027 32-25.6zM717.568 879.104c7.638 1.877 16.408 2.954 25.428 2.954 54.165 0 99.264-38.82 108.991-90.156l0.109-0.691 44.8-243.072 2.219-7.253-48.896-15.104-2.731 8.747-0.427 1.451-0.256 1.451-45.056 244.48c-5.299 28.011-29.581 48.91-58.745 48.91-4.861 0-9.587-0.581-14.111-1.677l0.408 0.083-563.456-132.608c-26.607-6.41-46.069-30.007-46.069-58.149 0-2.604 0.167-5.169 0.49-7.684l-0.031 0.298 11.861-94.592-50.859-6.315-11.776 94.592c-0.544 4.128-0.855 8.902-0.855 13.748 0 52.246 36.118 96.057 84.748 107.825l0.758 0.155 563.456 132.608zM443.861 677.888c1.326 0.37 2.85 0.583 4.422 0.583 9.426 0 17.067-7.641 17.067-17.067 0-8.058-5.585-14.813-13.096-16.602l-0.116-0.023-341.333-85.333c-1.326-0.37-2.85-0.583-4.422-0.583-9.426 0-17.067 7.641-17.067 17.067 0 8.058 5.585 14.813 13.096 16.602l0.116 0.023 341.333 85.333zM806.528 763.221c1.326 0.37 2.85 0.583 4.422 0.583 9.426 0 17.067-7.641 17.067-17.067 0-8.058-5.585-14.813-13.096-16.602l-0.116-0.023-256-64c-1.326-0.37-2.85-0.583-4.422-0.583-9.426 0-17.067 7.641-17.067 17.067 0 8.058 5.585 14.813 13.096 16.602l0.116 0.023 256 64zM683.605 630.571c0.093 0.002 0.202 0.003 0.312 0.003 9.426 0 17.067-7.641 17.067-17.067 0-6.863-4.051-12.779-9.892-15.49l-0.105-0.044-3.285-1.109-237.227-53.675c-1.032-0.222-2.218-0.349-3.434-0.349-9.426 0-17.067 7.641-17.067 17.067 0 7.963 5.454 14.653 12.83 16.537l0.118 0.026 237.227 53.675 3.456 0.427zM832.128 675.755c0.225 0.011 0.489 0.017 0.754 0.017 9.426 0 17.067-7.641 17.067-17.067 0-6.803-3.98-12.676-9.739-15.418l-0.103-0.044-3.243-1.152-65.536-16.043c-0.953-0.188-2.048-0.296-3.169-0.296-9.449 0-17.109 7.66-17.109 17.109 0 7.688 5.071 14.192 12.051 16.349l0.121 0.032 65.493 16.043 3.413 0.427z" />
<glyph unicode="&#xe92b;" glyph-name="Settings" d="M409.6 689.792v142.208c0 14.138-11.462 25.6-25.6 25.6s-25.6-11.462-25.6-25.6v-142.208c0-10.411-4.907-21.589-15.787-30.635-10.965-9.131-26.752-14.933-43.947-14.933h-170.667l-5.163-0.469c-11.781-2.455-20.506-12.753-20.506-25.088s8.724-22.633 20.339-25.059l0.166-0.029 5.163-0.512h170.667c0.317-0.003 0.691-0.005 1.065-0.005 28.763 0 55.17 10.093 75.87 26.931l-0.221-0.174c21.163 17.621 34.219 42.667 34.219 69.973zM750.933 704v51.2c0 26.923-10.411 52.907-29.099 72.107-18.026 18.636-43.237 30.226-71.155 30.293h-336.013l-5.12-0.512c-5.231-1.105-9.742-3.671-13.221-7.247l-0.006-0.006-186.709-192c-4.461-4.602-7.211-10.885-7.211-17.81 0-0.009 0-0.017 0-0.026v0.001-499.2c0-26.923 10.411-52.907 29.099-72.107 18.773-19.328 44.373-30.293 71.168-30.293h224c14.138 0 25.6 11.462 25.6 25.6s-11.462 25.6-25.6 25.6h-224c-12.8 0-25.173 5.205-34.475 14.72-9.031 9.393-14.592 22.178-14.592 36.262 0 0.077 0 0.153 0 0.23v-0.012 488.789l171.904 176.811h325.163c12.8 0 25.173-5.205 34.475-14.72 9.259-9.557 14.592-22.656 14.592-36.48v-51.2c0-14.138 11.462-25.6 25.6-25.6s25.6 11.462 25.6 25.6v0zM678.485 618.667v-42.667h-34.219v42.667h34.261zM613.973 541.269c-2.387-11.696-10.526-21.064-21.271-25.138l-0.233-0.078c-3.787-1.503-5.742-2.349-7.684-3.218l1.753 0.701c-12.459-5.376-27.307-3.712-36.907 5.888-5.387 5.375-12.823 8.699-21.035 8.699s-15.648-3.324-21.035-8.699l-24.319-24.319c-5.375-5.387-8.699-12.823-8.699-21.035s3.324-15.648 8.699-21.035l-0.001 0.001 3.243-3.84c3.581-5.281 5.717-11.794 5.717-18.806 0-5.176-1.164-10.081-3.244-14.466l0.088 0.205c-0.853-1.963-1.621-3.925-2.432-5.931l-2.133-4.565c-5.459-10.183-15.908-17.061-27.991-17.365l-0.041-0.001c-16.448 0-29.781-13.334-29.781-29.781v0-34.304c0-16.469 13.355-29.781 29.781-29.781 13.568 0 25.173-9.301 30.165-21.931l2.475-5.931 1.707-4.779c0.92-2.877 1.45-6.187 1.45-9.62 0-8.732-3.429-16.664-9.014-22.521l0.012 0.013c-5.388-5.389-8.72-12.833-8.72-21.056s3.332-15.667 8.72-21.056v0l24.32-24.277c4.034-4.012 9.209-6.88 14.996-8.073l0.193-0.033 5.845-0.555c5.888 0 11.648 1.707 16.469 4.949l4.565 3.712c9.6 9.643 24.405 11.307 36.907 5.888l5.931-2.517 4.565-2.133c10.24-5.76 17.365-16.171 17.365-28.032 0-14.379 10.24-26.368 23.765-29.141l5.973-0.64h34.347c14.421 0 26.411 10.24 29.184 23.808l0.597 5.973c0 13.568 9.301 25.216 21.931 30.208 2.005 0.768 3.968 1.579 5.931 2.432 12.459 5.419 27.307 3.755 36.864-5.845 4.054-4.028 9.261-6.899 15.084-8.074l0.191-0.032 5.803-0.597c0.002 0 0.004 0 0.007 0 6.151 0 11.866 1.865 16.611 5.059l-0.106-0.067 4.565 3.712 24.277 24.32c4.012 4.034 6.88 9.209 8.073 14.996l0.033 0.193 0.555 5.845c0 0.011 0 0.024 0 0.038 0 8.193-3.309 15.614-8.663 20.998l0.001-0.001c-9.643 9.6-11.307 24.405-5.888 36.907l2.517 5.931c4.949 12.629 16.597 21.931 30.165 21.931 14.307 0.013 26.252 10.113 29.107 23.571l0.035 0.195 0.64 5.973v34.304c0 0.002 0 0.005 0 0.008 0 14.333-10.126 26.302-23.614 29.142l-0.194 0.034-5.973 0.64c-12.124 0.304-22.573 7.182-27.947 17.191l-0.085 0.174-2.176 4.523c-1.244 3.236-2.078 5.206-2.944 7.159l0.469-1.185c-5.376 12.459-3.712 27.264 5.888 36.864 4.021 4.043 6.891 9.235 8.074 15.040l0.033 0.192 0.555 5.803c0 0.026 0 0.057 0 0.088 0 6.132-1.848 11.833-5.018 16.575l0.068-0.109-3.712 4.565-24.32 24.235c-5.392 5.365-12.826 8.681-21.035 8.681s-15.643-3.316-21.036-8.683l0.001 0.001c-5.839-5.576-13.767-9.007-22.497-9.007-3.438 0-6.751 0.532-9.862 1.519l0.231-0.063-4.779 1.707c-0.773 0.401-2.728 1.234-4.701 2.034l-1.23 0.441c-12.629 4.992-21.931 16.64-21.931 30.208-0.013 14.307-10.113 26.252-23.571 29.107l-0.195 0.035-5.973 0.64v42.667c36.693 0 66.901-27.349 71.637-62.805 12.043 9.28 27.34 14.878 43.944 14.891h0.003l7.125-0.384c14.208-1.408 27.691-6.955 38.699-16l5.333-4.779 24.32-24.32 4.821-5.376c10.131-12.37 16.272-28.35 16.272-45.764 0-16.589-5.573-31.877-14.948-44.094l0.127 0.172c35.456-4.693 62.805-34.987 62.805-71.765v-34.261c0-36.736-27.349-66.987-62.805-71.68 9.273-12.049 14.862-27.353 14.862-43.961 0-19.963-8.075-38.041-21.136-51.145l-24.318-24.318c-13.107-13.052-31.185-21.12-51.147-21.12-16.605 0-31.906 5.583-44.129 14.975l0.171-0.127c-4.864-35.634-35.098-62.799-71.679-62.805h-34.305c-36.736 0-66.987 27.349-71.723 62.805-12.039-9.259-27.326-14.839-43.916-14.839-19.946 0-38.009 8.066-51.104 21.113l-24.318 24.318c-11.461 11.448-19.11 26.71-20.88 43.72l-0.026 0.312-0.299 7.168 0.341 7.168c1.323 13.355 6.4 26.069 14.507 36.736-35.606 4.901-62.74 35.119-62.763 71.678v34.306c0 36.693 27.307 66.987 62.72 71.723-7.828 10.165-13.056 22.708-14.48 36.381l-0.026 0.312-0.299 7.168 0.341 7.168c1.621 16.555 8.96 32.128 20.821 43.989l24.32 24.32 5.291 4.864c12.379 10.174 28.386 16.341 45.834 16.341 0.026 0 0.053 0 0.079 0h-0.004l7.168-0.341c13.355-1.323 26.027-6.4 36.693-14.507 4.736 35.413 34.987 62.763 71.765 62.763v-42.667c-0.013 0-0.028 0-0.043 0-16.448 0-29.781-13.334-29.781-29.781v0l-0.427-4.949zM703.787 345.557c-2.073 20.225-18.005 36.157-38.048 38.214l-0.182 0.015-4.224 0.213c-23.564 0-42.667-19.103-42.667-42.667v0l0.213-4.224c2.22-21.675 20.378-38.441 42.453-38.443v0l4.224 0.213c21.675 2.22 38.441 20.378 38.443 42.453v0l-0.213 4.224zM746.24 332.928c-4.13-40.481-36.021-72.372-76.139-76.471l-0.362-0.030-8.405-0.427c-44.163 0.006-80.488 33.561-84.877 76.566l-0.030 0.362-0.427 8.405c0 47.128 38.205 85.333 85.333 85.333v0l8.405-0.427c43.367-4.419 76.922-40.743 76.928-84.906v-0.001l-0.427-8.405z" />
<glyph unicode="&#xe92c;" glyph-name="Fields" d="M409.6 689.792v142.208c0 14.138-11.462 25.6-25.6 25.6s-25.6-11.462-25.6-25.6v-142.208c0-10.411-4.907-21.589-15.787-30.635-10.965-9.131-26.752-14.933-43.947-14.933h-170.667l-5.163-0.469c-11.781-2.455-20.506-12.753-20.506-25.088s8.724-22.633 20.339-25.059l0.166-0.029 5.163-0.512h170.667c0.317-0.003 0.691-0.005 1.065-0.005 28.763 0 55.17 10.093 75.87 26.931l-0.221-0.174c21.163 17.621 34.219 42.667 34.219 69.973zM750.933 597.333v157.867c0 26.923-10.411 52.907-29.099 72.107-18.026 18.636-43.237 30.226-71.155 30.293h-336.013l-5.12-0.512c-5.231-1.105-9.742-3.671-13.221-7.247l-0.006-0.006-186.709-192c-4.461-4.602-7.211-10.885-7.211-17.81 0-0.009 0-0.017 0-0.026v0.001-499.2c0-26.923 10.411-52.907 29.099-72.107 18.773-19.328 44.373-30.293 71.168-30.293h84.608c14.138 0 25.6 11.462 25.6 25.6s-11.462 25.6-25.6 25.6h-84.608c-12.8 0-25.173 5.205-34.475 14.72-9.031 9.393-14.592 22.178-14.592 36.262 0 0.077 0 0.153 0 0.23v-0.012 488.789l171.904 176.811h325.163c12.8 0 25.173-5.205 34.475-14.72 9.259-9.557 14.592-22.656 14.592-36.48v-157.867c0-14.138 11.462-25.6 25.6-25.6s25.6 11.462 25.6 25.6v0zM874.667 405.333c0 35.346-28.654 64-64 64v0h-384c-35.346 0-64-28.654-64-64v0-213.333c0-35.346 28.654-64 64-64v0h384c35.346 0 64 28.654 64 64v0 213.333zM917.333 192c0-58.91-47.756-106.667-106.667-106.667v0h-384c-58.91 0-106.667 47.756-106.667 106.667v0 213.333c0 58.91 47.756 106.667 106.667 106.667v0h384c58.91 0 106.667-47.756 106.667-106.667v0-213.333zM704 405.333h-170.667c-11.782 0-21.333-9.551-21.333-21.333s9.551-21.333 21.333-21.333v0h170.667c11.782 0 21.333 9.551 21.333 21.333s-9.551 21.333-21.333 21.333v0zM704 234.667h-170.667c-11.782 0-21.333-9.551-21.333-21.333s9.551-21.333 21.333-21.333v0h170.667c11.782 0 21.333 9.551 21.333 21.333s-9.551 21.333-21.333 21.333v0zM640 213.333v170.667c0 11.782-9.551 21.333-21.333 21.333s-21.333-9.551-21.333-21.333v0-170.667c0-11.782 9.551-21.333 21.333-21.333s21.333 9.551 21.333 21.333v0z" />
<glyph unicode="&#xe92d;" glyph-name="Private-Note" d="M181.333 106.667v682.667c0 64.801 52.532 117.333 117.333 117.333v0h234.667c17.673 0 32-14.327 32-32s-14.327-32-32-32v0h-234.667c-29.455 0-53.333-23.878-53.333-53.333v0-682.667c0-29.455 23.878-53.333 53.333-53.333v0h512c29.455 0 53.333 23.878 53.333 53.333v0 277.333c0 17.673 14.327 32 32 32s32-14.327 32-32v0-277.333c0-64.801-52.532-117.333-117.333-117.333v0h-512c-64.801 0-117.333 52.532-117.333 117.333v0zM298.667 736c17.673 0 32-14.327 32-32s-14.327-32-32-32v0h-170.667c-17.673 0-32 14.327-32 32s14.327 32 32 32v0h170.667zM298.667 565.333c17.673 0 32-14.327 32-32s-14.327-32-32-32v0h-170.667c-17.673 0-32 14.327-32 32s14.327 32 32 32v0h170.667zM298.667 394.667c17.673 0 32-14.327 32-32s-14.327-32-32-32v0h-170.667c-17.673 0-32 14.327-32 32s14.327 32 32 32v0h170.667zM298.667 224c17.673 0 32-14.327 32-32s-14.327-32-32-32v0h-170.667c-17.673 0-32 14.327-32 32s14.327 32 32 32v0h170.667zM778.667 704v85.333c0 0.002 0 0.005 0 0.007 0 27.592-20.953 50.29-47.815 53.051l-0.227 0.019-5.291 0.256c-29.455 0-53.333-23.878-53.333-53.333v0-85.333c0-17.673-14.327-32-32-32s-32 14.327-32 32v0 85.333c0 64.801 52.532 117.333 117.333 117.333v0l11.563-0.597c59.624-6.078 105.757-56.018 105.771-116.735v-85.334c0-17.673-14.327-32-32-32s-32 14.327-32 32v0zM864 661.333c0 5.891-4.776 10.667-10.667 10.667v0h-256c-5.891 0-10.667-4.776-10.667-10.667v0-128c0-5.888 4.779-10.667 10.667-10.667h256c5.891 0 10.667 4.776 10.667 10.667v0 128zM928 533.333c0-41.237-33.429-74.667-74.667-74.667v0h-256c-41.237 0-74.667 33.429-74.667 74.667v0 128c0 41.216 33.451 74.667 74.667 74.667h256c41.216 0 74.667-33.451 74.667-74.667v-128z" />
<glyph unicode="&#xe92e;" glyph-name="integration-setting" d="M449.28 106.624c0.073-29.401 23.906-53.212 53.309-53.248h18.755c29.419 0.036 53.267 23.839 53.376 53.237v7.819c0.038 43.131 23.359 80.807 58.071 101.141l0.553 0.299h0.064l18.24 10.688h0.128c16.803 9.856 37.006 15.676 58.568 15.676 21.245 0 41.169-5.65 58.354-15.53l-0.57 0.302 6.4-3.328 0.896-0.512c7.654-4.494 16.858-7.148 26.682-7.148 17.74 0 33.458 8.654 43.164 21.971l0.106 0.152 2.88 4.48 9.344 16.192h0.064c4.442 7.625 7.064 16.783 7.064 26.553 0 17.769-8.672 33.512-22.015 43.228l-0.153 0.106-4.48 2.88-1.664 1.088-6.4 4.224c-34.114 20.767-56.615 57.645-56.896 99.799v21.801l0.256 7.808c2.576 40.336 25.174 74.879 57.878 94.036l0.554 0.3 5.952 3.584 0.384 0.256c15.998 9.417 26.565 26.551 26.565 46.154 0 9.796-2.639 18.976-7.245 26.868l0.137-0.253-9.344 16.128-2.88 4.48c-9.809 13.495-25.543 22.169-43.303 22.169-9.811 0-19.003-2.647-26.902-7.265l0.253 0.137-0.896-0.576-6.4-3.328c-16.632-9.587-36.577-15.243-57.844-15.243-18.858 0-36.677 4.447-52.466 12.35l0.678-0.307-6.848 3.712-18.368 10.624c-35.255 20.627-58.56 58.307-58.56 101.429 0 0.026 0 0.053 0 0.079v-0.004 7.68c-0.036 29.451-23.92 53.312-53.376 53.312h-18.752c-29.442-0.036-53.303-23.875-53.376-53.305v-7.687l-0.192-7.68c-2.749-40.122-25.276-74.437-57.815-93.524l-0.553-0.3-18.304-10.624h-0.128l-6.72-3.648c-15.126-7.619-32.968-12.081-51.851-12.081-21.242 0-41.166 5.646-58.352 15.519l0.571-0.302-6.4 3.328-0.896 0.64-4.672 2.304c-6.456 2.989-14.011 4.733-21.974 4.733-19.625 0-36.777-10.592-46.050-26.37l-0.136-0.251-9.152-16.256-0.192-0.256-2.432-4.736c-2.974-6.437-4.709-13.969-4.709-21.907 0-19.553 10.526-36.647 26.221-45.925l5.752-3.144 0.96-0.512c35.334-20.688 58.689-58.46 58.689-101.688 0-0.138 0-0.276-0.001-0.413v0.021-21.184c0-0.11 0.001-0.239 0.001-0.369 0-43.035-23.16-80.66-57.696-101.093l-0.545-0.298-6.4-3.776-0.384-0.256-4.48-2.88c-13.465-9.799-22.118-25.505-22.118-43.233 0-9.814 2.652-19.009 7.278-26.907l-0.136 0.252 9.344-16.256c9.398-16.010 26.529-26.588 46.13-26.588 7.985 0 15.56 1.755 22.36 4.901l-0.33-0.137 4.672 2.432 0.896 0.512 6.4 3.392h0.064c16.596 9.535 36.489 15.159 57.695 15.159 21.57 0 41.781-5.818 59.149-15.971l-0.556 0.3h0.128l18.24-10.688c35.284-20.615 58.614-58.302 58.624-101.439v-7.809zM385.28 114.304l-0.448 6.976c-1.969 14.466-9.484 26.879-20.293 35.236l-0.123 0.092-5.76 3.84-0.128 0.064-18.24 10.56c-7.659 4.484-16.864 7.131-26.688 7.131s-19.029-2.648-26.942-7.268l0.254 0.137-0.896-0.512-6.4-3.328c-16.596-9.536-36.49-15.16-57.697-15.16-43.135 0-80.836 23.268-101.236 57.938l-0.299 0.55-9.408 16.256-5.376 10.24c-6.575 14.197-10.409 30.813-10.409 48.325 0 43.155 23.29 80.871 57.987 101.264l0.551 0.299h0.064l5.952 3.584 0.448 0.32c16.067 9.401 26.688 26.573 26.688 46.225 0 0.061 0 0.123 0 0.184v-0.010 21.504c0 0.043 0 0.093 0 0.144 0 19.481-10.424 36.527-25.998 45.865l-0.243 0.135-5.888 3.2-1.024 0.576-9.664 6.272c-29.727 21.554-48.838 56.172-48.838 95.254 0 21.575 5.824 41.789 15.985 59.157l-0.3-0.555 9.28 16.384 0.192 0.256c20.702 35.204 58.395 58.461 101.519 58.461 21.188 0 41.064-5.614 58.223-15.435l-0.574 0.303 6.4-3.392 0.96-0.448c7.648-4.484 16.843-7.133 26.656-7.133s19.008 2.648 26.909 7.269l-0.253-0.136 0.064-0.064 18.24 10.688h0.064c16.028 9.392 26.621 26.531 26.624 46.144v0 7.68c0.073 64.77 52.596 117.248 117.376 117.248 0 0 0 0 0 0h18.752c64.788-0.036 117.303-52.529 117.376-117.305v-7.623l0.448-6.976c2.329-16.796 12.182-30.893 25.987-38.968l0.253-0.136 0.064-0.064 18.304-10.688c7.639-4.488 16.826-7.138 26.632-7.138 7.364 0 14.379 1.495 20.758 4.198l-0.349-0.131 7.168 3.584 6.4 3.456h0.128c16.583 9.524 36.459 15.141 57.647 15.141 39.040 0 73.626-19.070 94.951-48.403l0.234-0.338 6.272-9.792 9.408-16.128v-0.064c9.877-16.829 15.71-37.064 15.71-58.661 0-39.075-19.094-73.69-48.46-95.024l-0.338-0.234-9.664-6.208-6.016-3.648-0.448-0.256-5.888-3.904c-10.948-8.501-18.45-20.989-20.323-35.25l-0.029-0.27-0.448-7.040v-21.632l0.512-6.976c2.006-14.363 9.487-26.679 20.229-34.981l0.123-0.091 5.824-3.84c0.64-0.32 1.216-0.64 1.728-1.088l6.4-4.224c34.273-20.907 56.806-58.092 56.806-100.54 0-21.558-5.812-41.758-15.954-59.12l0.3 0.557-9.472-16.256-6.272-9.792c-21.575-29.634-56.149-48.676-95.17-48.676-21.193 0-41.074 5.617-58.236 15.443l0.574-0.303-6.528 3.392-0.896 0.448c-7.684 4.53-16.93 7.207-26.802 7.207-7.322 0-14.3-1.473-20.655-4.138l0.352 0.131-6.208-3.2-18.304-10.56h-0.128l-5.76-3.904c-10.938-8.445-18.454-20.86-20.385-35.052l-0.031-0.276-0.448-6.912v-7.68c-0.036-64.797-52.573-117.312-117.376-117.312h-18.752c-64.765 0.036-117.267 52.493-117.376 117.237v7.691zM416 448c0-53.019 42.981-96 96-96s96 42.981 96 96v0c0 53.019-42.981 96-96 96s-96-42.981-96-96v0zM352 448c0 88.366 71.634 160 160 160s160-71.634 160-160v0c0-88.366-71.634-160-160-160s-160 71.634-160 160v0z" />
<glyph unicode="&#xe92f;" glyph-name="chevron-down" horiz-adv-x="970" d="M276.48 614.211c-9.157 7.416-20.947 11.905-33.787 11.905-29.765 0-53.895-24.129-53.895-53.895 0-12.839 4.49-24.63 11.985-33.888l-0.079 0.101 3.719-4.096 242.526-242.526c9.751-9.74 23.215-15.763 38.087-15.763 12.947 0 24.828 4.565 34.12 12.174l-0.096-0.076 4.096 3.665 242.526 242.526 3.665 4.096c7.416 9.157 11.905 20.947 11.905 33.787 0 29.765-24.129 53.895-53.895 53.895-12.839 0-24.63-4.49-33.888-11.985l0.101 0.079-4.096-3.665-204.423-204.423-204.423 204.423-4.096 3.665z" />
<glyph unicode="&#xe930;" glyph-name="chevron-up" horiz-adv-x="970" d="M276.48 288.148c-9.157-7.416-20.947-11.905-33.787-11.905-29.765 0-53.895 24.129-53.895 53.895 0 12.839 4.49 24.63 11.985 33.888l-0.079-0.101 3.719 4.096 242.526 242.526c9.754 9.757 23.23 15.792 38.116 15.792 12.933 0 24.803-4.556 34.091-12.15l-0.096 0.076 4.096-3.719 242.526-242.526 3.665-4.096c7.416-9.157 11.905-20.947 11.905-33.787 0-29.765-24.129-53.895-53.895-53.895-12.839 0-24.63 4.49-33.888 11.985l0.101-0.079-4.096 3.665-204.423 204.423-204.423-204.423-4.096-3.665z" />
</font>
</defs>
</svg>
