<svg xmlns="http://www.w3.org/2000/svg" id="Layer_1" data-name="Layer 1" viewBox="0 0 150 150"><defs><style>.cls-1{fill:#fff;}</style></defs><title>destination</title><path class="cls-1" d="M33.09,0H36c5.74,1,11.14,3.06,15.16,7.37,16.05,17.22-1.5,39.86-15.36,51.2a2.21,2.21,0,0,1-2.27.6,15.36,15.36,0,0,1-1.6-1.27A96.16,96.16,0,0,1,18.74,44.13a2,2,0,0,1,.48-3.22l.39-.26a1.7,1.7,0,0,1,2.33.38A83.47,83.47,0,0,0,33.88,53.87a.46.46,0,0,0,.66,0Q46.47,44.3,51.41,32.26q4.06-9.88-.83-18.2C40.73-2.67,15.92,4,15.48,23.15,15.39,26.86,17,31,18.12,34.67a1.28,1.28,0,0,1-.79,1.73l-1.14.5a1.34,1.34,0,0,1-1.72-.62C6.11,19.89,14.33,2.16,33.09,0Z"></path><path class="cls-1" d="M44.69,23.25A10.41,10.41,0,0,1,34.28,33.66h0A10.41,10.41,0,1,1,44.69,23.25Zm-4.28-.08a6.12,6.12,0,0,0-6.11-6.11h0a6.11,6.11,0,1,0,6.11,6.11Z"></path><path class="cls-1" d="M125.21,92l11.52-12a1.64,1.64,0,0,1,2.07-.25l.3.2a1.79,1.79,0,0,1,.49,3,108.77,108.77,0,0,1-13.42,13.76,2.2,2.2,0,0,1-3.17.1c-12.61-10.5-28.93-29.45-22-47.49,5.6-14.66,22-20.67,35.89-13.16q10.72,5.79,12.67,18.65,1.39,9.14-4.6,20.33a1.81,1.81,0,0,1-3,.75l-.42-.28a1.77,1.77,0,0,1-.62-2.24q6.16-12.82,4.12-19.8-2.67-9.13-10-13.41a20.7,20.7,0,0,0-31.2,19.4c1,12.68,11.13,24.76,20.47,32.56A.62.62,0,0,0,125.21,92Z"></path><path class="cls-1" d="M135.73,58a11.19,11.19,0,1,1-22.38,0h0a11.19,11.19,0,0,1,11.19-11.19h0A11.19,11.19,0,0,1,135.73,58Zm-4.26,0a7,7,0,0,0-7-7h0a7,7,0,0,0-7,7h0a7,7,0,0,0,7,7h0a7,7,0,0,0,7-7Z"></path><rect class="cls-1" x="37.96" y="57.55" width="4.42" height="7.04" rx="1.78" transform="translate(-32.14 71.79) rotate(-65.1)"></rect><rect class="cls-1" x="48.65" y="62.08" width="4.42" height="7.38" rx="2.03" transform="translate(-28.89 89.26) rotate(-68.7)"></rect><path class="cls-1" d="M58.36,71.13a2,2,0,0,1-.4-2.76,1.94,1.94,0,0,1,1.52-.78c2.07,0,7.55,1.9,4.81,5.2a1,1,0,0,1-.84.34A9.94,9.94,0,0,1,58.36,71.13Z"></path><rect class="cls-1" x="70.04" y="71.57" width="4.44" height="7.06" rx="1.81" transform="translate(-26.46 108.51) rotate(-64.8)"></rect><rect class="cls-1" x="80.77" y="76.09" width="4.36" height="7.4" rx="2.03" transform="translate(-22.67 125.52) rotate(-67.3)"></rect><rect class="cls-1" x="91.48" y="80.94" width="4.38" height="7.02" rx="1.78" transform="translate(-21.84 135.07) rotate(-65.7)"></rect><path class="cls-1" d="M27.16,150h-1C15,141.39,1.4,125.5.3,111a28.89,28.89,0,0,1,3.22-15.6,2.18,2.18,0,0,1,3.17-1.14l.35.15a1.56,1.56,0,0,1,.8,2.06l0,.08c-4.16,8.08-3.89,15.78-.44,23.69,4,9.24,11.39,17.76,19.06,24.21a.54.54,0,0,0,.76,0C39,134.53,54.64,115.73,46.54,98.73q-4.36-9.15-15.13-11.89-9.54-2.41-18.48,4.25a2.16,2.16,0,0,1-3-.36l-.3-.37A1.65,1.65,0,0,1,9.89,88a26.38,26.38,0,0,1,32.65-.84C54.11,95.74,55.8,111,49.47,123.51A75.63,75.63,0,0,1,27.16,150Z"></path><path class="cls-1" d="M106.45,91.86a1.05,1.05,0,0,1-1,.09l-3.9-1.67a.74.74,0,0,1-.47-.86L101.4,87a.63.63,0,0,1,.76-.62q3.7.28,4.83,1.45C108.44,89.31,108.26,90.65,106.45,91.86Z"></path><rect class="cls-1" x="112.97" y="90.19" width="4.3" height="7.36" rx="2.02" transform="translate(-17.57 160.63) rotate(-65.9)"></rect><path class="cls-1" d="M38.39,108.44A11.71,11.71,0,1,1,26.68,96.73,11.71,11.71,0,0,1,38.39,108.44Zm-4.24,0a7.43,7.43,0,0,0-7.43-7.43h0a7.43,7.43,0,1,0,7.43,7.43Z"></path><ellipse class="cls-1" cx="119.23" cy="101.57" rx="3.66" ry="2.39" transform="translate(-33.73 67.86) rotate(-28)"></ellipse><rect class="cls-1" x="105.24" y="104.89" width="7.38" height="4.48" rx="2.08" transform="translate(-37.47 63.42) rotate(-27.9)"></rect><rect class="cls-1" x="95.04" y="110.39" width="7.22" height="4.4" rx="1.84" transform="translate(-41.12 59) rotate(-27.8)"></rect><rect class="cls-1" x="84.74" y="115.88" width="7.18" height="4.4" rx="2.04" transform="translate(-43.75 52.51) rotate(-26.8)"></rect><rect class="cls-1" x="74.32" y="121.43" width="7.3" height="4.36" rx="2.04" transform="translate(-49.16 51.52) rotate(-28.2)"></rect><ellipse class="cls-1" cx="67.66" cy="129.11" rx="3.65" ry="2.32" transform="translate(-55.22 50.7) rotate(-29.8)"></ellipse><ellipse class="cls-1" cx="57.33" cy="134.58" rx="3.66" ry="2.36" transform="translate(-55.83 41.88) rotate(-27.6)"></ellipse><rect class="cls-1" x="43.45" y="137.83" width="7.08" height="4.5" rx="2.12" transform="translate(-58.83 36.97) rotate(-27.2)"></rect><ellipse class="cls-1" cx="36.79" cy="145.61" rx="3.61" ry="2.36" transform="translate(-63.47 33.79) rotate(-27.7)"></ellipse></svg>