<svg xmlns="http://www.w3.org/2000/svg" viewBox="0.00 0.00 150.00 150.00"><g stroke-width="2.00" fill="none" stroke-linecap="butt"><path stroke="#b1bab5" d="  M 128.04 51.79  Q 134.57 38.80 136.71 33.01  Q 139.60 25.18 133.19 20.04  C 126.22 14.45 117.10 20.51 117.02 28.40  Q 116.98 31.27 118.93 35.38  Q 122.74 43.43 126.73 52.24  A 0.76 0.68 5.9 0 0 127.02 52.56  Q 128.01 53.13 127.93 52.40  Q 127.90 52.08 128.04 51.79"></path><path stroke="#b1bab5" d="  M 133.76 28.44  A 6.33 6.33 0.0 0 0 127.43 22.11  A 6.33 6.33 0.0 0 0 121.10 28.44  A 6.33 6.33 0.0 0 0 127.43 34.77  A 6.33 6.33 0.0 0 0 133.76 28.44"></path><path stroke="#b1bab5" d="  M 130.72 28.47  A 3.25 3.25 0.0 0 0 127.47 25.22  A 3.25 3.25 0.0 0 0 124.22 28.47  A 3.25 3.25 0.0 0 0 127.47 31.72  A 3.25 3.25 0.0 0 0 130.72 28.47"></path><path stroke="#b1bab5" d="  M 130.7521 67.3105  A 3.62 3.46 -5.7 0 0 126.8064 64.2271  A 3.62 3.46 -5.7 0 0 123.5479 68.0295  A 3.62 3.46 -5.7 0 0 127.4936 71.1129  A 3.62 3.46 -5.7 0 0 130.7521 67.3105"></path><path stroke="#b1bab5" d="  M 26.39 128.52  A 3.56 3.56 0.0 0 0 22.83 124.96  A 3.56 3.56 0.0 0 0 19.27 128.52  A 3.56 3.56 0.0 0 0 22.83 132.08  A 3.56 3.56 0.0 0 0 26.39 128.52"></path><path stroke="#b1bab5" d="  M 28.47 103.38  C 32.15 95.49 36.93 87.36 27.91 81.68  C 20.04 76.73 10.65 84.34 12.30 92.43  Q 12.57 93.73 16.51 102.43  Q 19.31 108.62 22.24 114.55  Q 22.58 115.23 22.93 114.56  Q 25.82 109.08 28.47 103.38"></path><path stroke="#b1bab5" d="  M 28.94 91.44  A 6.33 6.33 0.0 0 0 22.61 85.11  A 6.33 6.33 0.0 0 0 16.28 91.44  A 6.33 6.33 0.0 0 0 22.61 97.77  A 6.33 6.33 0.0 0 0 28.94 91.44"></path><path stroke="#b1bab5" d="  M 25.80 91.46  A 3.19 3.19 0.0 0 0 22.61 88.27  A 3.19 3.19 0.0 0 0 19.42 91.46  A 3.19 3.19 0.0 0 0 22.61 94.65  A 3.19 3.19 0.0 0 0 25.80 91.46"></path></g><path fill="#ffffff" d="  M 113.56 28.16  C 113.56 19.50 122.62 12.90 131.07 15.25  C 139.31 17.55 143.25 26.30 139.74 34.28  Q 134.51 46.17 129.15 57.62  A 2.03 2.02 -3.2 0 1 128.36 58.50  Q 126.62 59.56 125.77 57.76  Q 120.80 47.29 115.98 36.75  Q 113.56 31.47 113.56 28.16  Z  M 128.04 51.79  Q 134.57 38.80 136.71 33.01  Q 139.60 25.18 133.19 20.04  C 126.22 14.45 117.10 20.51 117.02 28.40  Q 116.98 31.27 118.93 35.38  Q 122.74 43.43 126.73 52.24  A 0.76 0.68 5.9 0 0 127.02 52.56  Q 128.01 53.13 127.93 52.40  Q 127.90 52.08 128.04 51.79  Z"></path><path fill="#63756a" d="  M 127.93 52.40  Q 128.01 53.13 127.02 52.56  A 0.76 0.68 5.9 0 1 126.73 52.24  Q 122.74 43.43 118.93 35.38  Q 116.98 31.27 117.02 28.40  C 117.10 20.51 126.22 14.45 133.19 20.04  Q 139.60 25.18 136.71 33.01  Q 134.57 38.80 128.04 51.79  Q 127.90 52.08 127.93 52.40  Z  M 133.76 28.44  A 6.33 6.33 0.0 0 0 127.43 22.11  A 6.33 6.33 0.0 0 0 121.10 28.44  A 6.33 6.33 0.0 0 0 127.43 34.77  A 6.33 6.33 0.0 0 0 133.76 28.44  Z"></path><path fill="#ffffff" d="  M 133.76 28.44  A 6.33 6.33 0.0 0 1 127.43 34.77  A 6.33 6.33 0.0 0 1 121.10 28.44  A 6.33 6.33 0.0 0 1 127.43 22.11  A 6.33 6.33 0.0 0 1 133.76 28.44  Z  M 130.72 28.47  A 3.25 3.25 0.0 0 0 127.47 25.22  A 3.25 3.25 0.0 0 0 124.22 28.47  A 3.25 3.25 0.0 0 0 127.47 31.72  A 3.25 3.25 0.0 0 0 130.72 28.47  Z"></path><circle fill="#63756a" cx="127.47" cy="28.47" r="3.25"></circle><path fill="#ffffff" d="  M 29.93 127.25  Q 60.59 127.26 91.26 127.24  Q 98.95 127.24 101.78 121.28  Q 106.90 110.44 98.45 102.32  C 97.13 101.06 94.46 100.54 92.40 100.52  Q 82.57 100.44 72.74 100.52  Q 63.59 100.60 60.38 99.29  C 45.87 93.34 48.89 66.60 66.50 66.55  Q 93.21 66.47 119.94 66.51  Q 120.42 66.51 120.60 66.06  C 122.55 61.04 128.66 58.91 132.31 63.32  C 138.48 70.80 126.20 79.65 121.07 70.58  A 1.16 1.15 -14.5 0 0 120.06 69.99  Q 93.35 70.01 66.67 69.99  C 50.34 69.97 50.52 96.98 66.45 96.99  Q 78.98 97.01 91.51 97.00  C 96.30 97.00 99.67 98.12 102.81 101.89  C 109.35 109.74 108.69 124.91 98.24 129.46  Q 95.17 130.79 87.61 130.78  Q 58.61 130.72 29.65 130.76  Q 29.14 130.76 28.91 131.22  C 26.79 135.57 21.39 136.87 17.94 133.21  C 10.70 125.51 25.01 115.51 29.36 126.86  Q 29.51 127.25 29.93 127.25  Z  M 130.7521 67.3105  A 3.62 3.46 -5.7 0 0 126.8064 64.2271  A 3.62 3.46 -5.7 0 0 123.5479 68.0295  A 3.62 3.46 -5.7 0 0 127.4936 71.1129  A 3.62 3.46 -5.7 0 0 130.7521 67.3105  Z  M 26.39 128.52  A 3.56 3.56 0.0 0 0 22.83 124.96  A 3.56 3.56 0.0 0 0 19.27 128.52  A 3.56 3.56 0.0 0 0 22.83 132.08  A 3.56 3.56 0.0 0 0 26.39 128.52  Z"></path><ellipse fill="#63756a" cx="0.00" cy="0.00" transform="translate(127.15,67.67) rotate(-5.7)" rx="3.62" ry="3.46"></ellipse><path fill="#ffffff" d="  M 34.60 97.57  C 31.56 105.18 27.71 112.83 23.94 120.20  A 1.42 1.42 0.0 0 1 21.40 120.16  Q 16.15 109.21 10.75 97.78  Q 6.97 89.77 10.92 83.53  C 15.39 76.44 24.68 74.53 31.48 79.82  Q 35.86 83.22 36.42 88.67  Q 36.77 92.15 34.60 97.57  Z  M 28.47 103.38  C 32.15 95.49 36.93 87.36 27.91 81.68  C 20.04 76.73 10.65 84.34 12.30 92.43  Q 12.57 93.73 16.51 102.43  Q 19.31 108.62 22.24 114.55  Q 22.58 115.23 22.93 114.56  Q 25.82 109.08 28.47 103.38  Z"></path><path fill="#63756a" d="  M 28.47 103.38  Q 25.82 109.08 22.93 114.56  Q 22.58 115.23 22.24 114.55  Q 19.31 108.62 16.51 102.43  Q 12.57 93.73 12.30 92.43  C 10.65 84.34 20.04 76.73 27.91 81.68  C 36.93 87.36 32.15 95.49 28.47 103.38  Z  M 28.94 91.44  A 6.33 6.33 0.0 0 0 22.61 85.11  A 6.33 6.33 0.0 0 0 16.28 91.44  A 6.33 6.33 0.0 0 0 22.61 97.77  A 6.33 6.33 0.0 0 0 28.94 91.44  Z"></path><path fill="#ffffff" d="  M 28.94 91.44  A 6.33 6.33 0.0 0 1 22.61 97.77  A 6.33 6.33 0.0 0 1 16.28 91.44  A 6.33 6.33 0.0 0 1 22.61 85.11  A 6.33 6.33 0.0 0 1 28.94 91.44  Z  M 25.80 91.46  A 3.19 3.19 0.0 0 0 22.61 88.27  A 3.19 3.19 0.0 0 0 19.42 91.46  A 3.19 3.19 0.0 0 0 22.61 94.65  A 3.19 3.19 0.0 0 0 25.80 91.46  Z"></path><circle fill="#63756a" cx="22.61" cy="91.46" r="3.19"></circle><circle fill="#63756a" cx="22.83" cy="128.52" r="3.56"></circle></svg>