<svg xmlns="http://www.w3.org/2000/svg" id="Layer_1" data-name="Layer 1" viewBox="0 0 150 150"><defs><style>.cls-1{fill:#fcfcfc;}.cls-2{fill:#fff;}</style></defs><title>travel-agency-</title><path class="cls-1" d="M43.59,0h4.94Q63.44,2.24,66.92,14.82,68,18.54,68,27.24c0,10,.27,17.18-7.05,23.86a1,1,0,0,0-.33.91l.92,7a1.7,1.7,0,0,0,.46.95c5.51,5.56,11.18,7.25,17.71,10.21q6.36,2.89,8.64,5.6c4.71,5.62,4,13.06,3.86,20a.47.47,0,0,0,.45.48h.11c6.52-1.36,12.92,1.41,11.62,9.09q-3,17.77-6.24,35.51-1.39,7.62-8.68,9.15H14.37c-6.08-1.5-6.83-8.67-7.7-13.47a2.34,2.34,0,0,1,1.88-2.72,2,2,0,0,1,.42,0l22,0a.58.58,0,0,0,.63-.53l4.92-27.71q1.23-6.9,6.74-9a.72.72,0,0,0,.5-.72V81.49c0-.49-.2-.6-.61-.33q-4.44,2.93-8.67,6.12a3.16,3.16,0,0,1-2.3.89,2.6,2.6,0,0,1-2.08-1.65L25,70.27a.43.43,0,0,0-.65-.3Q19,72.1,13.82,74.58C7,77.84,4.73,80.77,4.72,88.25q0,18.45,0,36.91c0,2.77-3.22,3.17-4.7.72V84.79c1.13-7.27,4.5-11,11.36-14.14Q17.2,68,23.05,65.38c3-1.32,4.94-3.22,7.14-5.42a1.64,1.64,0,0,0,.48-1l.95-7a1.06,1.06,0,0,0-.34-1c-6.7-6.2-7.14-12.67-7.07-21.56q.06-8.7.22-10.32Q26,2.89,43.59,0ZM41.17,13c1.07-.23,2,.7,2.5,1.68q5.84,11.07,18.79,8.62a.86.86,0,0,0,.78-.94Q63.26,7.7,49.5,5.24c-9.88-1.77-19.72,3.22-20.25,14a.52.52,0,0,0,.46.6q7.09,1.54,9.49-5.13A2.66,2.66,0,0,1,41.17,13Zm21.36,15c-8.12,1.72-15.59-.8-20.68-7.24-.25-.31-.5-.32-.76,0a11,11,0,0,1-11.52,3.76c-.35-.08-.52.06-.53.41-.14,5.36-.85,12.9,1.57,17.67,4.7,9.26,15.91,14.74,25,7.26C62.71,44.09,64,37.52,63,28.42,63,28.11,62.84,28,62.53,28.05ZM55.88,55.49c-6.77,3.19-12.89,3.61-19.51,0-.32-.18-.51-.09-.56.28l-.55,4a1,1,0,0,0,.25.79L45.76,72a.44.44,0,0,0,.74,0l10.15-11.5a1.13,1.13,0,0,0,.28-.93l-.52-3.77C56.37,55.44,56.19,55.34,55.88,55.49Zm-23,8.95a.41.41,0,0,0-.58,0h0L29.1,67.13a.41.41,0,0,0-.13.44l4.46,14a.41.41,0,0,0,.51.27.45.45,0,0,0,.12-.06l8.28-5.9a.41.41,0,0,0,.09-.57l0,0Zm30.41,3.15a.39.39,0,0,0-.11-.41L60,64.41a.39.39,0,0,0-.55,0L49.79,75.32a.38.38,0,0,0,0,.55l0,0,8.31,6a.38.38,0,0,0,.54-.09.24.24,0,0,0,.06-.11ZM60.47,88.18a3.24,3.24,0,0,1-2.84-.8Q53.4,84.11,49,81c-.32-.22-.48-.13-.48.26V95.75a.44.44,0,0,0,.5.5H87a.51.51,0,0,0,.58-.59C87.37,87.48,89,79.2,79.84,75.11Q74,72.51,68,69.94a.44.44,0,0,0-.67.31L62,86.73A2.18,2.18,0,0,1,60.47,88.18Zm-19,15.88-6.68,38.13a2.63,2.63,0,0,0,2.14,3,2.28,2.28,0,0,0,.45,0q24.81,0,50.1-.14c3.45,0,5.45-1.64,6-4.88q3.26-18.52,6.41-36.89a2.23,2.23,0,0,0-1.82-2.58,2.34,2.34,0,0,0-.38,0H45.43A4,4,0,0,0,41.49,104.06ZM13.24,143.93a1.75,1.75,0,0,0,1.7,1.32H30a.24.24,0,0,0,.27-.26l.18-6.51a.2.2,0,0,0-.22-.23H13c-.8,0-1.1.39-.9,1.16Z"></path><path class="cls-2" d="M150,57.4v5.93q-2.91,26.9-26.09,40.3a2.22,2.22,0,0,1-3.34-.78l-.23-.34a1.67,1.67,0,0,1,.46-2.32h0l6.71-4.35q.72-.47,0-.93l-5.86-3.79a.55.55,0,0,0-.76.17s0,0,0,.08a40.15,40.15,0,0,1-8.41,12.78,1.9,1.9,0,0,1-3.22-.11l-.27-.33a1.92,1.92,0,0,1,.07-2.56,39.92,39.92,0,0,0,7.57-11.5.47.47,0,0,0-.31-.72,50.45,50.45,0,0,0-12.91-2.84.49.49,0,0,0-.6.52A2.28,2.28,0,0,1,101,89a2.25,2.25,0,0,1-2.71-1.64,2.33,2.33,0,0,1-.06-.53V63a.42.42,0,0,0-.47-.47H87.13a2.32,2.32,0,0,1-2.32-2.32v-.46a2,2,0,0,1,2-1.94l10.69,0a.63.63,0,0,0,.7-.71V39.31a.61.61,0,0,0-.58-.61,49.16,49.16,0,0,1-14.54-3.21.53.53,0,0,0-.68.3v0a86.14,86.14,0,0,0-3.55,23.83,2.32,2.32,0,0,1-2.42,2.58l-.34,0a1.73,1.73,0,0,1-1.85-1.6v-.09A83.71,83.71,0,0,1,78,34a.59.59,0,0,0-.38-.73c-2.33-.72-5.85-3.86-1.92-5.7a1.15,1.15,0,0,1,1,0l2.59,1.19a.5.5,0,0,0,.76-.28,45.38,45.38,0,0,1,6.49-10.57.38.38,0,0,0,0-.54.4.4,0,0,0-.43-.05L75.71,22.4a2.14,2.14,0,0,1-2.82-.9l-.15-.28a1.88,1.88,0,0,1,.52-2.39,32.06,32.06,0,0,1,8.22-4.6q29.47-10.82,52,8.82Q148.37,36.06,150,57.4ZM84.35,30.6a.32.32,0,0,0,.22.45,50.19,50.19,0,0,0,13.16,2.87c.3,0,.45-.11.45-.41V16a.55.55,0,0,0-.54-.55.54.54,0,0,0-.25.06A25.45,25.45,0,0,0,84.35,30.6Zm19.26-15.09a.56.56,0,0,0-.8.5V33.5c0,.3.15.44.44.41a47.87,47.87,0,0,0,12.86-2.76.48.48,0,0,0,.33-.68A24.67,24.67,0,0,0,103.61,15.51Zm23.76,8.79a53.54,53.54,0,0,0-12.59-6.79c-.79-.31-.92-.14-.39.52a46.92,46.92,0,0,1,6.48,10.62.55.55,0,0,0,.73.28l.07,0,5.68-3.76C127.75,24.86,127.76,24.59,127.37,24.3Zm17.71,33c-.87-11.56-5.18-20.73-13.18-29.05a.46.46,0,0,0-.63-.07l-8,5.26a.65.65,0,0,0-.29.79,93.6,93.6,0,0,1,3.69,22.91.53.53,0,0,0,.6.57h17.48C145,57.75,145.1,57.61,145.08,57.34ZM118.19,35.43a52.62,52.62,0,0,1-14.9,3.29.52.52,0,0,0-.48.52l0,18a.42.42,0,0,0,.48.48H121.5a.44.44,0,0,0,.5-.51,80.68,80.68,0,0,0-3.57-21.69.18.18,0,0,0-.23-.12ZM103.35,81.35c5.59.39,9.6,1.75,14.53,3a.57.57,0,0,0,.79-.44A80.48,80.48,0,0,0,122,63c0-.33-.14-.49-.47-.49H103.28a.42.42,0,0,0-.47.47v17.8A.51.51,0,0,0,103.35,81.35ZM132,91.83a45.15,45.15,0,0,0,13.11-28.7c0-.42-.16-.63-.58-.63H127.22a.58.58,0,0,0-.58.57,87.48,87.48,0,0,1-3.79,23,.57.57,0,0,0,.24.65l8.09,5.2A.58.58,0,0,0,132,91.83Z"></path><rect class="cls-2" x="18.08" y="102.36" width="4.68" height="25.26" rx="2.19"></rect><circle class="cls-2" cx="70.18" cy="122.95" r="2.31"></circle></svg>