<svg xmlns="http://www.w3.org/2000/svg" id="Layer_1" data-name="Layer 1" viewBox="0 0 81.94 75.16"><defs><style>.cls-1{fill:#fff;}</style></defs><title>tour-operator</title><path class="cls-1" d="M62.47,13.53c1.12,6.45.41,13,.48,19.42.13,12.48,0,25,.09,37.46,0,2.89-.63,4.11-3.88,4.06-12.31-.19-24.64-.12-36.95,0-2.71,0-3.84-.68-3.82-3.62.11-18,.06-36,0-53.94,0-1.38.08-2.66,1.2-3.63A416.62,416.62,0,0,1,62.47,13.53Z"></path><path class="cls-1" d="M66.61,44.17c0-8.66.14-17.32-.08-26-.09-3.6.84-5,4.71-5,8.69.12,9.21.45,9.21,9.33q0,21.74,0,43.46c0,7.2-5.46,10.86-12.19,8.33-2.21-.82-1.61-2.66-1.62-4.21C66.59,61.49,66.61,52.83,66.61,44.17Z"></path><path class="cls-1" d="M14.84,44.05c0,8.31.08,16.61-.05,24.92,0,2.13,1.47,5.54-2.88,5.4-4-.12-8.7,1.37-10.39-4.24a12.07,12.07,0,0,1-.3-3.46q0-22.68,0-45.35c0-6.81,5.5-10.34,11.94-7.88,2.19.84,1.64,2.63,1.65,4.2,0,8.8,0,17.61,0,26.41Z"></path><path class="cls-1" d="M57.55,11.05c-2.35.72-4.38,1-4-2.57.34-3.18-1.39-3.93-4.19-3.87-5.77.11-11.54.13-17.3,0-3-.07-4.31,1-4.16,4,.19,3.6-1.8,3.22-4.11,2.16C24,1.64,25.17.53,34.39.53c4.34,0,8.67,0,13,0C56.43.54,57.72,1.87,57.55,11.05Z"></path></svg>